<svg width="31" height="27" viewBox="0 0 31 27" fill="none" xmlns="http://www.w3.org/2000/svg">
<path fill-rule="evenodd" clip-rule="evenodd" d="M9.39705 20.94L8.99538 20.6962L4.83212 21.8131L5.94336 17.6617L5.68182 17.2361C4.5807 15.4449 3.99915 13.3747 4 11.249C4.00241 5.0463 8.93701 0 15.0045 0C17.9426 0.00104183 20.7045 1.17269 22.7813 3.29917C24.8581 5.42565 26.0011 8.2521 26 11.2581C25.9976 17.4613 21.063 22.5081 15.0002 22.5081H14.9957C13.0219 22.5073 11.0859 21.965 9.39705 20.94ZM21.2127 14.1735C21.4434 14.2875 21.5991 14.3645 21.6656 14.478C21.7483 14.619 21.7483 15.2961 21.4728 16.0863C21.1972 16.8762 19.8761 17.5972 19.2407 17.6943C18.671 17.7814 17.95 17.8178 17.1579 17.5603C16.6776 17.4044 16.0617 17.1964 15.2727 16.8479C12.1726 15.4789 10.0776 12.4059 9.68166 11.8251C9.65393 11.7844 9.63453 11.756 9.6237 11.7412L9.62103 11.7376C9.44603 11.4987 8.27344 9.89867 8.27344 8.24265C8.27344 6.68482 9.02166 5.86828 9.36607 5.49243C9.38967 5.46668 9.41137 5.443 9.43081 5.42128C9.73391 5.08269 10.0922 4.99805 10.3126 4.99805C10.5331 4.99805 10.7537 5.00013 10.9464 5.01003C10.9702 5.01125 10.9949 5.0111 11.0205 5.01095C11.2132 5.00979 11.4534 5.00835 11.6904 5.59058C11.7816 5.81465 11.915 6.14683 12.0557 6.49718C12.3403 7.20568 12.6547 7.98847 12.71 8.10175C12.7927 8.27104 12.8478 8.46847 12.7376 8.69428C12.721 8.72814 12.7057 8.76009 12.6911 8.79062C12.6083 8.96348 12.5474 9.09063 12.4069 9.25842C12.3516 9.3244 12.2945 9.39553 12.2374 9.46665C12.1237 9.60835 12.0099 9.75003 11.9108 9.85096C11.7453 10.0196 11.573 10.2026 11.7659 10.5412C11.9588 10.8797 12.6224 11.9872 13.6055 12.884C14.6622 13.848 15.5807 14.2554 16.0462 14.462C16.1371 14.5023 16.2108 14.535 16.2648 14.5626C16.5954 14.732 16.7883 14.7036 16.9812 14.478C17.1741 14.2523 17.8078 13.4904 18.0282 13.1519C18.2486 12.8134 18.4692 12.8698 18.7722 12.9826C19.0754 13.0956 20.7012 13.9137 21.0319 14.0829C21.0964 14.116 21.1568 14.1458 21.2127 14.1735Z" fill="#3C3C3C"/>
</svg>
