<svg width="31" height="27" viewBox="0 0 31 27" fill="none" xmlns="http://www.w3.org/2000/svg">
<path d="M25.0839 16.9247C24.9538 16.7026 24.6068 16.5693 24.0862 16.3027C23.5656 16.0362 21.006 14.7483 20.5287 14.5704C20.0516 14.3928 19.7044 14.3041 19.3574 14.8369C19.0104 15.3699 18.0127 16.5693 17.709 16.9247C17.4053 17.2799 17.1015 17.3245 16.5811 17.0579C16.0605 16.7914 14.383 16.2292 12.3945 14.4152C10.8468 13.0033 9.80196 11.2598 9.49828 10.7268C9.19459 10.1937 9.4659 9.90564 9.72653 9.64014C9.96075 9.4015 10.2472 9.01811 10.5075 8.70729C10.7677 8.39648 10.8545 8.17423 11.0281 7.81914C11.2016 7.46363 11.1148 7.15282 10.9847 6.88629C10.8545 6.61976 9.81335 3.99896 9.37952 2.93285C8.9569 1.89462 8.52772 2.03526 8.20818 2.01886C7.90485 2.00328 7.55741 2 7.21038 2C6.86333 2 6.29928 2.13326 5.82209 2.66632C5.34491 3.19938 4 4.48753 4 7.10812C4 9.72892 5.86546 12.2607 6.12578 12.616C6.38606 12.9715 9.79679 18.3494 15.0193 20.6557C16.2614 21.2043 17.231 21.5319 17.9872 21.7773C19.2343 22.1826 20.3693 22.1254 21.2662 21.9883C22.2665 21.8355 24.3464 20.7003 24.7804 19.4567C25.214 18.2127 25.214 17.1467 25.0839 16.9247Z" fill="#3C3C3C"/>
<path d="M14.4961 11.9712L20.292 10.202L15.8619 6.06717L14.4961 11.9712ZM21.4597 3.74104L17.7861 7.67706L18.5534 8.39322L22.227 4.4572L21.4597 3.74104ZM17.7861 7.67706L17.3352 8.16014L18.1025 8.8763L18.5534 8.39322L17.7861 7.67706Z" fill="#3C3C3C"/>
</svg>
