<svg width="23" height="22" viewBox="0 0 23 22" fill="none" xmlns="http://www.w3.org/2000/svg">
<g clip-path="url(#clip0_1_4906)">
<path d="M17.0991 0.00457747L14.2463 0C11.0411 0 8.96986 2.12509 8.96986 5.41423V7.91055H6.10142C5.85355 7.91055 5.65283 8.1115 5.65283 8.35937V11.9763C5.65283 12.2241 5.85378 12.4249 6.10142 12.4249H8.96986V21.5514C8.96986 21.7993 9.17058 22 9.41845 22H13.1609C13.4088 22 13.6095 21.799 13.6095 21.5514V12.4249H16.9634C17.2113 12.4249 17.412 12.2241 17.412 11.9763L17.4134 8.35937C17.4134 8.24036 17.366 8.12638 17.282 8.04215C17.198 7.95793 17.0836 7.91055 16.9646 7.91055H13.6095V5.79439C13.6095 4.77727 13.8519 4.26094 15.1768 4.26094L17.0987 4.26025C17.3463 4.26025 17.547 4.0593 17.547 3.81166V0.453169C17.547 0.205757 17.3465 0.00503522 17.0991 0.00457747Z" fill="#3C3C3C"/>
</g>
<defs>
<clipPath id="clip0_1_4906">
<rect width="22" height="22" fill="white" transform="translate(0.600098)"/>
</clipPath>
</defs>
</svg>
