<svg width="166" height="23" viewBox="0 0 166 23" fill="none" xmlns="http://www.w3.org/2000/svg">
<path fill-rule="evenodd" clip-rule="evenodd" d="M1.63253 0.387716C0.516655 1.09205 0.237884 1.80327 0.115491 4.25929L0 6.57705H7.73204H15.4638V4.19731C15.4638 1.9426 15.4232 1.77201 14.6896 0.952453L13.9154 0.0873345L8.1186 0.0200534C3.12303 -0.0376919 2.22645 0.0131663 1.63253 0.387716ZM24.7562 4.72285V5.78239H28.0749H31.3936V12.537V19.2916H32.4556H33.5175V12.537V5.78239H36.969H40.4204V4.72285V3.6633H32.5883H24.7562V4.72285ZM42.8911 4.30247L42.1461 4.94191V11.4774V18.013L42.8911 18.6524L43.6361 19.2916H50.6569H57.6777V18.232V17.1725H50.9075H44.1374V14.921V12.6694H50.9075H57.6777V11.4774V10.2855H50.9075H44.1374V8.03392V5.78239H50.9075H57.6777V4.72285V3.6633H50.6569H43.6361L42.8911 4.30247ZM60.327 4.42273L59.5361 5.21182V12.2517V19.2916H60.5981H61.6601V15.9805V12.6694H66.5569C71.3496 12.6694 71.4696 12.6829 72.1987 13.3083C72.9092 13.9176 72.9479 14.0712 73.035 16.6194L73.1261 19.2916H74.0306H74.9349V16.4393C74.9349 13.818 74.8799 13.5065 74.2574 12.5924L73.5801 11.5977L74.1777 10.7601C74.966 9.65582 75.1656 7.26072 74.5659 6.10343C74.3309 5.65048 73.7006 4.94614 73.1646 4.53795L72.1902 3.79574L66.6541 3.71469L61.1182 3.63337L60.327 4.42273ZM77.5843 4.42273L76.7934 5.21182V12.2517V19.2916H77.8554H78.9173V15.9805V12.6694H83.6838C86.6114 12.6694 88.6998 12.7828 89.0972 12.9635C90.0567 13.3997 90.3337 14.2858 90.3337 16.9201V19.2916H91.3956H92.4576L92.4459 16.9738C92.434 14.5922 92.0466 13.0037 91.2685 12.146C90.8522 11.687 90.8684 11.5929 91.5393 10.5813C92.875 8.56793 92.4096 6.05178 90.4218 4.53795L89.4474 3.79574L83.9113 3.71469L78.3755 3.63337L77.5843 4.42273ZM97.1038 4.03864C96.007 4.52709 94.888 5.7763 94.5763 6.86021C94.4332 7.3582 94.3161 10.3588 94.3161 13.5285V19.2916H95.3781H96.4401V15.9805V12.6694H102.148H107.856V15.9805V19.2916H108.931H110.005L109.926 12.1164L109.848 4.94111L109.103 4.30221C108.369 3.67284 108.28 3.66356 103.129 3.67363C99.3534 3.68105 97.6789 3.7825 97.1038 4.03864ZM112.35 4.34644L111.706 5.02958L111.628 12.1606L111.549 19.2916H112.619H113.688L113.759 12.6382L113.83 5.98476L118.886 12.4374C124.274 19.3128 124.773 19.7655 126.127 19.0084C127.358 18.3205 127.52 17.2358 127.441 10.1843L127.37 3.79574L126.247 3.71442L125.123 3.63337L125.052 10.1951L124.981 16.7566L120.737 11.3357C118.403 8.35417 116.029 5.40811 115.46 4.78907C114.227 3.44636 113.32 3.31709 112.35 4.34644ZM129.096 3.6633V19.2916H131.22V3.6633H129.096ZM134.049 3.96342C133.008 4.56709 132.813 5.75219 132.813 11.4774C132.813 17.2676 133.011 18.4236 134.101 19.0055C134.445 19.1893 137.107 19.2916 141.557 19.2916H148.477V18.232V17.1725H141.707H134.937V11.4774V5.78239H141.707H148.477V4.72285V3.6633L141.508 3.67125C137.047 3.67654 134.362 3.7817 134.049 3.96342ZM153.123 4.03732C152.098 4.49213 151.263 5.40546 150.747 6.6385C150.418 7.42336 150.336 8.78726 150.336 13.4556V19.2916H151.398H152.46V15.9805V12.6694H158.168H163.876V15.9805V19.2916H164.938H166V12.2517V5.21182L165.224 4.43756L164.448 3.6633L159.184 3.67363C155.392 3.68105 153.697 3.78276 153.123 4.03732ZM71.7489 6.12515C72.7597 6.63532 73.1802 7.71262 72.8077 8.83812C72.6402 9.34511 72.2813 9.87806 72.0107 10.0227C71.7357 10.1694 69.3422 10.2855 66.5893 10.2855H61.6601V8.03392V5.78239L66.3727 5.78636C69.6377 5.78901 71.2891 5.89311 71.7489 6.12515ZM89.0062 6.12515C90.3841 6.82048 90.6475 8.64793 89.5305 9.76231C89.0452 10.2465 88.6305 10.2855 83.9618 10.2855H78.9173V8.03392V5.78239L83.6299 5.78636C86.895 5.78901 88.5463 5.89311 89.0062 6.12515ZM107.856 8.03392V10.2855H102.148H96.4401V8.80819C96.4401 7.52852 96.5439 7.22734 97.2161 6.55665L97.9922 5.78239H102.924H107.856V8.03392ZM163.876 8.03392V10.2855H158.168H152.46V8.88765C152.46 7.37462 152.934 6.42686 153.882 6.04516C154.195 5.91907 156.571 5.80835 159.163 5.79908L163.876 5.78239V8.03392ZM0.113367 14.9872C0.204432 21.4806 0.256735 21.7346 1.67714 22.5719C2.18503 22.8713 3.05028 23 4.55299 23H6.70245V15.9805V8.96103H3.36569H0.0292046L0.113367 14.9872ZM9.09191 15.9805V23H11.3752C13.6178 23 13.6744 22.9841 14.5611 22.0994L15.4638 21.1988V15.0799V8.96103H12.2779H9.09191V15.9805Z" fill="#0F0F0F"/>
</svg>
