<svg width="28" height="28" viewBox="0 0 28 28" fill="none" xmlns="http://www.w3.org/2000/svg">
<g clip-path="url(#clip0_1_4912)">
<path d="M27.8506 20.4396C27.8167 20.3666 27.7851 20.3059 27.7557 20.2574C27.2699 19.3824 26.3416 18.3085 24.9712 17.0353L24.9423 17.0061L24.9278 16.9918L24.9131 16.9772H24.8984C24.2765 16.3843 23.8827 15.9857 23.7177 15.7816C23.4159 15.3928 23.3483 14.9993 23.5133 14.6005C23.6298 14.2993 24.0675 13.663 24.8253 12.691C25.224 12.1758 25.5397 11.7629 25.7728 11.4519C27.4544 9.2164 28.1834 7.7879 27.9597 7.16582L27.8729 7.02045C27.8145 6.93293 27.6639 6.85286 27.4212 6.77985C27.1779 6.70698 26.867 6.69493 26.4879 6.74349L22.2894 6.77249C22.2214 6.74839 22.1242 6.75064 21.9977 6.77985C21.8713 6.80905 21.8081 6.82371 21.8081 6.82371L21.7351 6.86022L21.677 6.90408C21.6284 6.93308 21.575 6.98409 21.5166 7.05701C21.4586 7.12967 21.41 7.21494 21.3712 7.31211C20.9141 8.48811 20.3944 9.58149 19.8111 10.5922C19.4515 11.1949 19.1212 11.7172 18.8196 12.1594C18.5184 12.6015 18.2657 12.9272 18.0617 13.136C17.8575 13.345 17.6732 13.5125 17.5076 13.6389C17.3423 13.7655 17.2162 13.8189 17.1288 13.7994C17.0412 13.7798 16.9588 13.7604 16.8807 13.741C16.7447 13.6535 16.6353 13.5345 16.5529 13.3838C16.47 13.2332 16.4143 13.0436 16.3851 12.8152C16.3561 12.5867 16.339 12.3901 16.3341 12.2248C16.3295 12.0597 16.3316 11.8262 16.3415 11.5249C16.3516 11.2235 16.3561 11.0196 16.3561 10.9127C16.3561 10.5433 16.3633 10.1424 16.3778 9.70991C16.3925 9.27742 16.4044 8.93475 16.4143 8.6823C16.4242 8.42959 16.4288 8.16224 16.4288 7.88038C16.4288 7.59852 16.4117 7.37747 16.3778 7.21704C16.3443 7.0568 16.2929 6.90127 16.2251 6.75049C16.1569 6.59985 16.0572 6.48333 15.9262 6.40061C15.7951 6.318 15.632 6.25243 15.4379 6.20372C14.9227 6.08715 14.2667 6.02409 13.4696 6.01428C11.662 5.99488 10.5005 6.1116 9.98538 6.36431C9.78129 6.47108 9.5966 6.61696 9.43147 6.8015C9.25648 7.01539 9.23207 7.13212 9.3584 7.15132C9.94162 7.23869 10.3545 7.44768 10.5975 7.7781L10.6851 7.95319C10.7532 8.07952 10.8212 8.30317 10.8893 8.62383C10.9572 8.9445 11.0011 9.29922 11.0204 9.6878C11.0689 10.3974 11.0689 11.0048 11.0204 11.5101C10.9717 12.0156 10.9258 12.4092 10.8819 12.691C10.8381 12.9729 10.7725 13.2013 10.6851 13.3762C10.5975 13.5511 10.5392 13.658 10.51 13.6968C10.4809 13.7357 10.4566 13.7601 10.4373 13.7697C10.311 13.8181 10.1796 13.8428 10.0436 13.8428C9.90741 13.8428 9.74228 13.7747 9.54794 13.6385C9.35365 13.5024 9.15201 13.3154 8.94301 13.0773C8.73402 12.8391 8.49832 12.5062 8.23581 12.0786C7.97351 11.651 7.70135 11.1457 7.41949 10.5625L7.18629 10.1396C7.04051 9.86759 6.84137 9.47145 6.58867 8.9516C6.33581 8.43153 6.11232 7.92848 5.91803 7.44252C5.84036 7.23843 5.72369 7.08305 5.5682 6.97613L5.49524 6.93227C5.44673 6.89346 5.36886 6.85225 5.26204 6.80834C5.15506 6.76448 5.04344 6.73302 4.92672 6.71367L0.932224 6.74267C0.524038 6.74267 0.24708 6.83515 0.101249 7.01984L0.0428853 7.1072C0.0137292 7.15586 -0.000976562 7.23358 -0.000976562 7.34055C-0.000976562 7.44748 0.0281796 7.5787 0.0865429 7.73408C0.669666 9.10458 1.3038 10.4263 1.98894 11.6995C2.67409 12.9726 3.26946 13.9982 3.77472 14.7753C4.28007 15.5529 4.79518 16.2868 5.32004 16.9766C5.84491 17.6667 6.19233 18.109 6.36231 18.3033C6.5325 18.4979 6.66618 18.6434 6.76335 18.7406L7.12788 19.0904C7.36113 19.3237 7.70365 19.6031 8.15559 19.9286C8.60764 20.2544 9.1081 20.575 9.65721 20.8912C10.2064 21.2068 10.8454 21.4643 11.5744 21.6635C12.3033 21.8629 13.0127 21.9429 13.7028 21.9043H15.3794C15.7194 21.875 15.977 21.768 16.1521 21.5835L16.2101 21.5104C16.2491 21.4524 16.2856 21.3623 16.3193 21.241C16.3534 21.1196 16.3704 20.9857 16.3704 20.8401C16.3604 20.4223 16.3922 20.0457 16.4649 19.7105C16.5376 19.3753 16.6204 19.1226 16.713 18.9524C16.8056 18.7824 16.9101 18.6389 17.0264 18.5226C17.1429 18.406 17.2259 18.3354 17.2746 18.3111C17.323 18.2866 17.3617 18.27 17.3908 18.2601C17.6241 18.1823 17.8986 18.2576 18.2148 18.4862C18.5307 18.7146 18.827 18.9966 19.1042 19.3318C19.3812 19.6673 19.714 20.0436 20.1027 20.4615C20.4916 20.8795 20.8317 21.1902 21.1231 21.3946L21.4146 21.5695C21.6092 21.6862 21.8619 21.7932 22.173 21.8903C22.4835 21.9875 22.7556 22.0118 22.9892 21.9632L26.7211 21.905C27.0902 21.905 27.3775 21.8439 27.5812 21.7226C27.7853 21.6011 27.9066 21.4673 27.9457 21.3217C27.9847 21.176 27.9868 21.0106 27.9531 20.8258C27.9186 20.6414 27.8845 20.5125 27.8506 20.4396Z" fill="#3C3C3C"/>
</g>
<defs>
<clipPath id="clip0_1_4912">
<rect width="28" height="28" fill="white"/>
</clipPath>
</defs>
</svg>
