<svg width="26" height="19" viewBox="0 0 26 19" fill="none" xmlns="http://www.w3.org/2000/svg">
<path fill-rule="evenodd" clip-rule="evenodd" d="M22.8016 0.549329C23.9031 0.851593 24.7706 1.74221 25.065 2.87322C25.6 4.92304 25.6 9.2 25.6 9.2C25.6 9.2 25.6 13.4768 25.065 15.5268C24.7706 16.6578 23.9031 17.5484 22.8016 17.8508C20.8054 18.4 12.8 18.4 12.8 18.4C12.8 18.4 4.79462 18.4 2.79825 17.8508C1.69673 17.5484 0.829236 16.6578 0.534836 15.5268C0 13.4768 0 9.2 0 9.2C0 9.2 0 4.92304 0.534836 2.87322C0.829236 1.74221 1.69673 0.851593 2.79825 0.549329C4.79462 0 12.8 0 12.8 0C12.8 0 20.8054 0 22.8016 0.549329ZM10.3984 5.60156V13.6016L16.7984 9.60172L10.3984 5.60156Z" fill="#3C3C3C"/>
</svg>
