<svg width="31" height="27" viewBox="0 0 31 27" fill="none" xmlns="http://www.w3.org/2000/svg">
<path d="M0.523825 12.5566C3.68746 10.7892 7.21893 9.31403 10.5186 7.83135C16.1952 5.40285 21.8944 3.01644 27.6511 0.794722C28.7711 0.416185 30.7836 0.0460434 30.9809 1.72948C30.8728 4.11246 30.4283 6.48149 30.1235 8.85051C29.3496 14.0602 28.4552 19.2521 27.583 24.4446C27.2824 26.1743 25.1462 27.0696 23.7793 25.9628C20.4943 23.7123 17.1841 21.4836 13.9411 19.1809C12.8787 18.0861 13.8639 16.5139 14.8126 15.732C17.5182 13.0277 20.3875 10.73 22.9517 7.88591C23.6434 6.19186 21.5997 7.61954 20.9256 8.05704C17.2216 10.6459 13.6083 13.3928 9.70311 15.668C7.70836 16.7817 5.38344 15.83 3.38959 15.2086C1.60189 14.4578 -1.0178 13.7015 0.523645 12.5568L0.523825 12.5566Z" fill="white"/>
</svg>
