<svg xmlns="http://www.w3.org/2000/svg" width="29" height="29" viewBox="0 0 29 29" fill="none">
  <g clip-path="url(#clip0_1_5701)">
    <path d="M21.3517 0.299869L17.6597 0.293945C13.5119 0.293945 10.8314 3.04406 10.8314 7.3006V10.5311H7.11934C6.79857 10.5311 6.53882 10.7912 6.53882 11.112V15.7926C6.53882 16.1134 6.79887 16.3732 7.11934 16.3732H10.8314V28.184C10.8314 28.5048 11.0912 28.7645 11.412 28.7645H16.2552C16.576 28.7645 16.8357 28.5045 16.8357 28.184V16.3732H21.176C21.4968 16.3732 21.7566 16.1134 21.7566 15.7926L21.7583 11.112C21.7583 10.9579 21.697 10.8104 21.5883 10.7014C21.4796 10.5924 21.3315 10.5311 21.1775 10.5311H16.8357V7.79257C16.8357 6.4763 17.1494 5.8081 18.864 5.8081L21.3511 5.80721C21.6716 5.80721 21.9313 5.54716 21.9313 5.22668V0.8804C21.9313 0.560219 21.6719 0.300461 21.3517 0.299869Z" fill="url(#paint0_linear_1_5701)"/>
  </g>
  <defs>
    <linearGradient id="paint0_linear_1_5701" x1="14.2351" y1="0.293945" x2="14.2351" y2="28.7645" gradientUnits="userSpaceOnUse">
      <stop stop-color="#27ABF9"/>
      <stop offset="1" stop-color="#1168DE"/>
    </linearGradient>
    <clipPath id="clip0_1_5701">
      <rect width="28.4706" height="28.4706" fill="white" transform="translate(0 0.293945)"/>
    </clipPath>
  </defs>
</svg>