<svg xmlns="http://www.w3.org/2000/svg" width="39" height="34" viewBox="0 0 39 34" fill="none">
  <path fill-rule="evenodd" clip-rule="evenodd" d="M20.186 17.5404L19.7085 18.046C19.418 18.3537 18.9285 18.3537 18.638 18.046L18.1605 17.5405L5.10174 3.71375C5.10122 3.7132 5.1005 3.71289 5.09975 3.71289H4.44717C4.04052 3.71289 3.71088 4.04254 3.71088 4.44918V23.3328C3.71088 23.7395 4.04052 24.0691 4.44717 24.0691H33.8988C34.3054 24.0691 34.635 23.7395 34.635 23.3328V4.44918C34.635 4.04254 34.3054 3.71289 33.8988 3.71289H33.2464C33.2456 3.71289 33.2449 3.7132 33.2444 3.71375L20.186 17.5404ZM29.5107 3.71375C30.1566 3.71375 30.4895 4.48603 30.046 4.95559L19.7085 15.9013C19.418 16.209 18.9285 16.209 18.6379 15.9013L8.30015 4.95559C7.85667 4.48604 8.18956 3.71375 8.83543 3.71375H29.5107Z" fill="white"/>
</svg>