<svg xmlns="http://www.w3.org/2000/svg" width="39" height="34" viewBox="0 0 39 34" fill="none">
  <path d="M31.0658 20.935C30.9049 20.6602 30.4756 20.4954 29.8317 20.1656C29.1877 19.836 26.0216 18.2429 25.4312 18.0229C24.841 17.8032 24.4115 17.6934 23.9823 18.3525C23.5531 19.0117 22.3189 20.4954 21.9432 20.935C21.5676 21.3744 21.1919 21.4296 20.5482 21.0998C19.9042 20.7701 17.8292 20.0747 15.3694 17.8308C13.455 16.0844 12.1626 13.9277 11.7869 13.2683C11.4113 12.609 11.7469 12.2527 12.0692 11.9242C12.359 11.629 12.7133 11.1548 13.0352 10.7703C13.3572 10.3859 13.4645 10.111 13.6792 9.67171C13.8938 9.23196 13.7865 8.84749 13.6255 8.51781C13.4645 8.18812 12.1766 4.94628 11.64 3.62754C11.1172 2.34328 10.5864 2.51725 10.1911 2.49696C9.81589 2.47769 9.38611 2.47363 8.95685 2.47363C8.52757 2.47363 7.82985 2.63848 7.23959 3.29785C6.64932 3.95722 4.98572 5.55063 4.98572 8.79221C4.98572 12.034 7.29322 15.1658 7.61524 15.6053C7.9372 16.0451 12.1562 22.6973 18.6162 25.5501C20.1527 26.2287 21.3521 26.634 22.2874 26.9375C23.83 27.4389 25.234 27.3681 26.3435 27.1985C27.5808 27.0094 30.1535 25.6053 30.6904 24.0669C31.2267 22.5282 31.2267 21.2096 31.0658 20.935Z" fill="white"/>
  <path d="M17.9691 14.8083L25.1384 12.6198L19.6585 7.50522L17.9691 14.8083ZM26.5828 4.62786L22.0387 9.49659L22.9878 10.3825L27.532 5.51374L26.5828 4.62786ZM22.0387 9.49659L21.481 10.0941L22.4301 10.98L22.9878 10.3825L22.0387 9.49659Z" fill="white"/>
</svg>