<svg xmlns="http://www.w3.org/2000/svg" width="39" height="34" viewBox="0 0 39 34" fill="none">
  <path d="M4.52389 14.5566C7.68752 12.7892 11.219 11.314 14.5186 9.83135C20.1953 7.40285 25.8944 5.01644 31.6511 2.79472C32.7712 2.41619 34.7837 2.04604 34.981 3.72948C34.8729 6.11246 34.4284 8.48149 34.1235 10.8505C33.3497 16.0602 32.4552 21.2521 31.583 26.4446C31.2825 28.1743 29.1462 29.0696 27.7793 27.9628C24.4944 25.7123 21.1842 23.4836 17.9411 21.1809C16.8788 20.0861 17.8639 18.5139 18.8127 17.732C21.5183 15.0277 24.3876 12.73 26.9518 9.88591C27.6435 8.19186 25.5998 9.61954 24.9256 10.057C21.2217 12.6459 17.6083 15.3928 13.7032 17.668C11.7084 18.7817 9.3835 17.83 7.38965 17.2086C5.60195 16.4578 2.98226 15.7015 4.52371 14.5568L4.52389 14.5566Z" fill="white"/>
</svg>