<svg xmlns="http://www.w3.org/2000/svg" width="37" height="37" viewBox="0 0 37 37" fill="none">
  <g clip-path="url(#clip0_1_5707)">
    <path d="M36.6303 26.4515C36.5864 26.357 36.5455 26.2785 36.5075 26.2157C35.8788 25.0834 34.6775 23.6936 32.9041 22.0459L32.8666 22.0082L32.8478 21.9897L32.8289 21.9707H32.8098C32.005 21.2035 31.4953 20.6876 31.2819 20.4235C30.8914 19.9204 30.8039 19.4111 31.0173 18.8951C31.1681 18.5052 31.7345 17.6818 32.7153 16.4239C33.2312 15.7572 33.6397 15.2229 33.9415 14.8203C36.1175 11.9274 37.0609 10.0787 36.7715 9.27367L36.6591 9.08555C36.5836 8.97228 36.3886 8.86867 36.0746 8.77418C35.7598 8.67988 35.3574 8.66429 34.8668 8.72713L29.4334 8.76466C29.3454 8.73347 29.2197 8.73638 29.056 8.77418C28.8924 8.81198 28.8106 8.83094 28.8106 8.83094L28.7161 8.87819L28.641 8.93495C28.5781 8.97248 28.5089 9.0385 28.4334 9.13286C28.3583 9.22689 28.2954 9.33724 28.2452 9.46299C27.6536 10.9849 26.9811 12.3998 26.2263 13.7078C25.7609 14.4878 25.3335 15.1637 24.9431 15.736C24.5533 16.3081 24.2263 16.7296 23.9624 16.9998C23.6981 17.2703 23.4595 17.487 23.2453 17.6507C23.0314 17.8144 22.8681 17.8836 22.755 17.8583C22.6417 17.833 22.535 17.8079 22.434 17.7827C22.258 17.6695 22.1164 17.5155 22.0097 17.3205C21.9025 17.1256 21.8304 16.8802 21.7926 16.5847C21.7551 16.2889 21.7329 16.0345 21.7266 15.8206C21.7207 15.6069 21.7234 15.3048 21.7361 14.9149C21.7492 14.5248 21.7551 14.2609 21.7551 14.1225C21.7551 13.6445 21.7644 13.1257 21.7831 12.566C21.8022 12.0063 21.8176 11.5629 21.8304 11.2362C21.8433 10.9091 21.8492 10.5632 21.8492 10.1984C21.8492 9.83363 21.827 9.54757 21.7831 9.33995C21.7398 9.13259 21.6732 8.93132 21.5856 8.73618C21.4973 8.54125 21.3682 8.39045 21.1988 8.2834C21.029 8.17649 20.818 8.09164 20.5668 8.0286C19.9001 7.87774 19.0512 7.79613 18.0196 7.78345C15.6803 7.75834 14.1772 7.90939 13.5106 8.23642C13.2465 8.37459 13.0075 8.56338 12.7938 8.8022C12.5673 9.079 12.5358 9.23006 12.6992 9.25491C13.454 9.36797 13.9883 9.63843 14.3028 10.066L14.4161 10.2926C14.5043 10.4561 14.5923 10.7455 14.6804 11.1605C14.7683 11.5755 14.8251 12.0345 14.8501 12.5374C14.9128 13.4557 14.9128 14.2418 14.8501 14.8957C14.7871 15.5499 14.7276 16.0592 14.6708 16.424C14.6141 16.7887 14.5292 17.0843 14.4161 17.3106C14.3028 17.537 14.2274 17.6754 14.1896 17.7256C14.1519 17.7758 14.1204 17.8075 14.0954 17.8199C13.9319 17.8825 13.7619 17.9144 13.586 17.9144C13.4097 17.9144 13.196 17.8263 12.9445 17.6501C12.6931 17.474 12.4321 17.232 12.1617 16.9238C11.8912 16.6155 11.5862 16.1847 11.2465 15.6314C10.907 15.078 10.5548 14.4241 10.1901 13.6694L9.88827 13.1222C9.69961 12.7701 9.4419 12.2574 9.11487 11.5847C8.78765 10.9117 8.49842 10.2606 8.24698 9.63176C8.14648 9.36764 7.99548 9.16656 7.79427 9.02819L7.69984 8.97143C7.63707 8.9212 7.5363 8.86788 7.39806 8.81105C7.25962 8.75429 7.11517 8.71358 6.96411 8.68854L1.79477 8.72607C1.26653 8.72607 0.908112 8.84574 0.719389 9.08475L0.64386 9.19781C0.606128 9.26079 0.587097 9.36136 0.587097 9.4998C0.587097 9.63817 0.624829 9.80799 0.700358 10.0091C1.45499 11.7827 2.27563 13.4931 3.16229 15.1408C4.04894 16.7884 4.81943 18.1156 5.47329 19.1212C6.12728 20.1275 6.79389 21.0773 7.47312 21.97C8.15236 22.8631 8.60196 23.4354 8.82194 23.6868C9.04219 23.9387 9.21518 24.1271 9.34093 24.2528L9.81267 24.7055C10.1145 25.0074 10.5578 25.369 11.1427 25.7903C11.7277 26.2118 12.3753 26.6268 13.0859 27.0359C13.7967 27.4443 14.6235 27.7776 15.567 28.0354C16.5102 28.2934 17.4284 28.397 18.3214 28.347H20.4911C20.9311 28.309 21.2645 28.1707 21.4911 27.9319L21.5661 27.8373C21.6166 27.7622 21.6639 27.6456 21.7075 27.4887C21.7516 27.3315 21.7736 27.1583 21.7736 26.9699C21.7607 26.4291 21.8018 25.9418 21.8959 25.5079C21.99 25.0742 22.0971 24.7471 22.217 24.5269C22.3368 24.3069 22.472 24.1212 22.6225 23.9706C22.7733 23.8198 22.8807 23.7284 22.9438 23.6969C23.0064 23.6653 23.0564 23.6438 23.0942 23.6309C23.396 23.5304 23.7512 23.6278 24.1604 23.9236C24.5692 24.2192 24.9527 24.5841 25.3114 25.0179C25.6699 25.452 26.1006 25.9391 26.6036 26.4798C27.1069 27.0207 27.547 27.4228 27.9242 27.6874L28.3014 27.9137C28.5533 28.0648 28.8803 28.2032 29.2828 28.3289C29.6847 28.4546 30.0367 28.4861 30.3391 28.4232L35.1686 28.3479C35.6463 28.3479 36.018 28.2688 36.2817 28.1119C36.5459 27.9546 36.7028 27.7815 36.7534 27.5931C36.8039 27.4045 36.8066 27.1905 36.763 26.9513C36.7183 26.7127 36.6742 26.5458 36.6303 26.4515Z" fill="#157BFB"/>
  </g>
  <defs>
    <clipPath id="clip0_1_5707">
      <rect width="36.2353" height="36.2353" fill="white" transform="translate(0.588257)"/>
    </clipPath>
  </defs>
</svg>