<svg xmlns="http://www.w3.org/2000/svg" width="40" height="34" viewBox="0 0 40 34" fill="none">
  <g clip-path="url(#clip0_1_5651)">
    <path fill-rule="evenodd" clip-rule="evenodd" d="M12.3156 25.9021L11.8187 25.6005L6.6689 26.9821L8.04346 21.8469L7.71994 21.3204C6.3579 19.1049 5.63853 16.5441 5.63959 13.9147C5.64257 6.2421 11.7465 0 19.2518 0C22.8861 0.00128871 26.3025 1.45058 28.8714 4.08097C31.4403 6.71135 32.8543 10.2076 32.8529 13.9259C32.8499 21.5991 26.746 27.8418 19.2465 27.8418H19.241C16.7994 27.8408 14.4047 27.1699 12.3156 25.9021ZM26.9313 17.5314C27.2166 17.6724 27.4093 17.7676 27.4915 17.908C27.5938 18.0825 27.5938 18.9201 27.2531 19.8974C26.9121 20.8746 25.2779 21.7665 24.492 21.8865C23.7873 21.9943 22.8955 22.0392 21.9156 21.7208C21.3215 21.528 20.5597 21.2706 19.5838 20.8395C15.749 19.1461 13.1576 15.345 12.6678 14.6265C12.6335 14.5762 12.6095 14.541 12.5961 14.5227L12.5928 14.5182C12.3763 14.2228 10.9258 12.2436 10.9258 10.1951C10.9258 8.26816 11.8514 7.25813 12.2774 6.79321C12.3066 6.76136 12.3334 6.73206 12.3575 6.70521C12.7324 6.28638 13.1756 6.18168 13.4483 6.18168C13.7209 6.18168 13.9939 6.18425 14.2322 6.1965C14.2616 6.19801 14.2922 6.19782 14.3238 6.19763C14.5622 6.1962 14.8594 6.19442 15.1526 6.91462C15.2653 7.19178 15.4304 7.60268 15.6044 8.03606C15.9564 8.91244 16.3453 9.88073 16.4137 10.0208C16.516 10.2303 16.5842 10.4745 16.4478 10.7538C16.4273 10.7957 16.4084 10.8352 16.3903 10.873C16.2879 11.0868 16.2126 11.2441 16.0388 11.4516C15.9704 11.5332 15.8998 11.6212 15.8292 11.7092C15.6884 11.8845 15.5477 12.0597 15.4252 12.1846C15.2204 12.3932 15.0073 12.6195 15.2459 13.0383C15.4845 13.4571 16.3054 14.827 17.5214 15.9363C18.8286 17.1288 19.9647 17.6328 20.5405 17.8882C20.653 17.9381 20.7441 17.9785 20.8109 18.0127C21.2198 18.2222 21.4584 18.1872 21.697 17.908C21.9356 17.6289 22.7196 16.6864 22.9922 16.2677C23.2649 15.849 23.5377 15.9188 23.9125 16.0583C24.2875 16.1981 26.2986 17.21 26.7076 17.4194C26.7875 17.4603 26.8621 17.4972 26.9313 17.5314Z" fill="url(#paint0_linear_1_5651)"/>
  </g>
  <defs>
    <linearGradient id="paint0_linear_1_5651" x1="27.5001" y1="3" x2="7.00006" y2="27" gradientUnits="userSpaceOnUse">
      <stop stop-color="#6AEA73"/>
      <stop offset="1" stop-color="#1DC32D"/>
    </linearGradient>
    <clipPath id="clip0_1_5651">
      <rect width="38.346" height="33.3981" fill="white" transform="translate(0.691895)"/>
    </clipPath>
  </defs>
</svg>