<svg xmlns="http://www.w3.org/2000/svg" width="34" height="25" viewBox="0 0 34 25" fill="none">
  <path fill-rule="evenodd" clip-rule="evenodd" d="M29.508 1.1816C30.9335 1.57277 32.0561 2.72533 32.4371 4.18899C33.1294 6.84169 33.1294 12.3766 33.1294 12.3766C33.1294 12.3766 33.1294 17.9113 32.4371 20.5642C32.0561 22.0278 30.9335 23.1804 29.508 23.5718C26.9246 24.2825 16.5647 24.2825 16.5647 24.2825C16.5647 24.2825 6.2048 24.2825 3.62127 23.5718C2.19576 23.1804 1.07313 22.0278 0.692141 20.5642C0 17.9113 0 12.3766 0 12.3766C0 12.3766 0 6.84169 0.692141 4.18899C1.07313 2.72533 2.19576 1.57277 3.62127 1.1816C6.2048 0.470703 16.5647 0.470703 16.5647 0.470703C16.5647 0.470703 26.9246 0.470703 29.508 1.1816ZM13.4568 7.71979V18.0727L21.7392 12.8965L13.4568 7.71979Z" fill="white"/>
</svg>