<svg width="127" height="127" viewBox="0 0 127 127" fill="none" xmlns="http://www.w3.org/2000/svg">
<path id="2023-09-28 20.19 1 (Traced)" fill-rule="evenodd" clip-rule="evenodd" d="M61.6066 3.54475C61.6066 6.84199 61.6582 7.08913 62.3497 7.08913C63.0121 7.08913 63.0943 6.83792 63.1058 4.77339L63.1188 2.45765L64.44 4.77339C65.4871 6.60857 65.9471 7.08913 66.6563 7.08913C67.5392 7.08913 67.5514 7.04133 67.5514 3.5692C67.5514 0.296415 67.4994 0.0492788 66.8083 0.0492788C66.1455 0.0492788 66.0641 0.299749 66.0548 2.36502L66.0444 4.68076L64.8473 2.45765C63.8846 0.669897 63.4498 0.211565 62.6283 0.117453L61.6066 0V3.54475ZM51.7604 4.3636C45.2303 5.74118 37.1773 9.15366 31.0675 13.1323C28.406 14.8652 27.7094 15.6563 28.4454 16.1094C28.5985 16.2035 29.9781 15.4499 31.5107 14.4347C37.3742 10.5505 45.2876 7.17991 51.7604 5.80936C55.6951 4.97643 55.6829 4.98125 55.4299 4.32432C55.1716 3.65331 55.1256 3.65368 51.7604 4.3636ZM72.7532 4.3032C72.7532 4.6048 73.1292 4.92901 73.5892 5.02349C79.0109 6.13653 80.9025 6.62339 84.0517 7.71605C88.348 9.20665 93.4104 11.6739 96.9692 14.0123C99.2721 15.5251 100.248 15.7733 100.248 14.8456C100.248 14.3294 95.6104 11.4538 91.2963 9.29483C87.0803 7.18509 81.4334 5.20764 77.1345 4.33544C73.5695 3.61219 72.7532 3.60626 72.7532 4.3032ZM24.2595 16.4188C24.1294 16.7567 24.3059 17.4636 24.6515 17.9894C25.3745 19.0902 25.1702 19.1899 23.8972 18.3581C22.628 17.5285 22.0915 17.9902 22.7807 19.3188C23.5398 20.7828 23.4855 20.9128 22.4106 20.2103C21.9012 19.8776 21.2061 19.712 20.8657 19.842C20.3923 20.0232 20.7178 20.3748 22.2501 21.3382C23.7185 22.2615 24.3795 22.4934 24.7254 22.2074C25.0996 21.8976 25.0264 21.5412 24.3732 20.4875L23.5494 19.158L24.8826 19.9795C25.9426 20.6331 26.296 20.7046 26.6088 20.3285C26.8979 19.9813 26.6701 19.3188 25.749 17.8301C24.7982 16.2928 24.4389 15.9523 24.2595 16.4188ZM103.996 18.7275C102.859 19.8824 102.541 20.423 102.875 20.629C103.17 20.8109 103.681 20.5249 104.261 19.8528C104.944 19.0606 105.123 18.9743 104.96 19.5152C103.963 22.8388 104.505 23.3968 106.652 21.2559C108.416 19.4971 108.283 18.2306 106.512 19.9224L105.426 20.9602L105.97 19.4218C106.404 18.1958 106.42 17.8053 106.049 17.4985C105.707 17.2147 105.167 17.5378 103.996 18.7275ZM107.125 21.9069L105.677 23.386L106.75 24.5028C107.982 25.7851 109.05 25.4391 107.871 24.1393C107.085 23.2737 107.376 22.6798 108.237 23.3919C108.97 23.9989 109.419 23.5872 108.815 22.8614C108.024 21.9114 108.777 21.3945 109.697 22.2559C110.909 23.3919 111.205 22.6957 110.03 21.4723C109.478 20.898 108.924 20.4278 108.8 20.4278C108.675 20.4278 107.921 21.0932 107.125 21.9069ZM19.621 21.2322C19.621 21.4708 19.9134 21.9932 20.2712 22.393C20.9014 23.0978 20.8928 23.1111 19.9926 22.8347C19.4817 22.6776 18.8816 22.4812 18.6587 22.3978C18.4361 22.3148 18.0646 22.4742 17.8331 22.7524C17.5024 23.1493 17.7595 23.5976 19.0306 24.8418C20.1074 25.8955 20.7386 26.2809 20.917 25.993C21.066 25.7525 20.7959 25.1341 20.3102 24.6021C19.5868 23.8099 19.5541 23.6865 20.12 23.8899C23.0274 24.9352 23.6264 24.2842 21.6319 22.247C20.1709 20.755 19.621 20.4774 19.621 21.2322ZM111.996 27.3972C111.893 27.5625 112.655 28.9371 113.688 30.4522C117.525 36.0792 121.015 44.2662 122.389 50.8607C123.092 54.2346 123.422 54.8975 124.072 54.2491C124.378 53.9438 124.318 53.0727 123.844 50.933C122.241 43.7015 119.101 36.2601 115.028 30.0398C113.244 27.3154 112.466 26.6377 111.996 27.3972ZM13.8968 30.3392C11.413 34.1685 8.60481 39.9827 7.19588 44.2129C5.95377 47.9421 4.75886 52.9864 4.75886 54.4999C4.75886 55.5303 5.82002 55.4655 6.01694 54.4229C7.722 45.4085 10.7654 37.5402 15.0442 31.0854C16.562 28.796 16.8072 27.8382 15.8761 27.8382C15.6796 27.8382 14.7889 28.9634 13.8968 30.3392ZM0.0241501 60.5364C0.120382 60.7913 0.503083 62.2919 0.875008 63.8711C1.50553 66.5507 1.61589 66.7426 2.52396 66.7426C3.39563 66.7426 3.55688 66.5199 4.06442 64.6121L4.63104 62.4817L5.26268 64.6121C5.79921 66.4225 6.02548 66.7426 6.7671 66.7426C7.55257 66.7426 7.7194 66.4277 8.42869 63.6065C9.3821 59.8169 9.37727 60.0733 8.49186 60.0733C7.96982 60.0733 7.65772 60.4631 7.37943 61.4627C7.16653 62.2271 6.99152 63.0608 6.99041 63.3153C6.98521 64.4465 6.34316 63.6128 5.90399 61.9051C5.50234 60.3419 5.29575 60.0507 4.65445 60.1452C4.06294 60.2326 3.746 60.7654 3.27524 62.4661L2.66367 64.6736L2.17433 62.3735C1.73441 60.306 1.59211 60.0733 0.766886 60.0733C0.187262 60.0733 -0.0865729 60.2437 0.0241501 60.5364ZM122.169 63.5006L122.169 66.9279L124.592 66.7426C127.364 66.5307 127.834 65.8715 125.334 65.7033C123.958 65.6107 123.656 65.4606 123.656 64.8696C123.656 64.2931 123.916 64.149 124.956 64.149C126.009 64.149 126.257 64.0078 126.257 63.4079C126.257 62.8081 126.009 62.6669 124.956 62.6669C123.904 62.6669 123.656 62.5257 123.656 61.9259C123.656 61.2945 123.904 61.1848 125.328 61.1848C126.566 61.1848 127 61.0407 127 60.6291C127 60.1922 126.484 60.0733 124.585 60.0733H122.17L122.169 63.5006ZM123.141 72.393C121.436 81.4074 118.393 89.2757 114.114 95.7305C112.596 98.0199 112.351 98.9777 113.282 98.9777C113.811 98.9777 116.62 94.4996 118.787 90.1987C121.518 84.7791 124.399 75.5987 124.399 72.316C124.399 71.2855 123.338 71.3504 123.141 72.393ZM5.15122 72.6583C4.06219 73.3293 7.1238 83.6931 10.3162 90.1438C12.421 94.3963 15.8668 99.7188 16.5152 99.7188C17.4771 99.7188 17.2631 99.0741 15.3459 96.1985C13.1099 92.8438 10.5347 87.8129 9.08411 83.9651C8.04079 81.1977 6.24507 74.5065 6.24507 73.3864C6.24507 72.5475 5.80515 72.2548 5.15122 72.6583ZM19.0027 102.152C18.8798 102.472 18.9968 103.138 19.2625 103.634C19.5285 104.129 19.6455 104.635 19.5225 104.757C19.1837 105.095 18.5063 104.563 18.5063 103.958C18.5063 103.664 18.2555 103.424 17.949 103.424C17.11 103.424 17.2784 104.3 18.3016 105.259C19.7176 106.585 21.4338 105.365 20.4228 103.75C19.7314 102.647 19.9521 102.049 20.7149 102.961C21.0983 103.42 21.5107 103.794 21.6311 103.794C22.0283 103.794 21.8592 102.469 21.4045 102.016C20.768 101.381 19.2665 101.466 19.0027 102.152ZM106.45 102.98L105.453 104.018L106.86 105.388C107.635 106.142 108.441 106.759 108.652 106.759C109.165 106.759 110.652 105.158 110.652 104.604C110.652 103.949 110.108 104.072 109.359 104.897C108.994 105.3 108.539 105.534 108.348 105.416C108.158 105.299 108.275 104.903 108.608 104.536C109.341 103.727 108.687 103.114 107.84 103.815C107.037 104.48 106.709 103.917 107.434 103.119C108.782 101.634 107.867 101.504 106.45 102.98ZM21.7192 105.308C21.1425 106.331 20.7702 107.425 20.891 107.74C21.0823 108.237 21.2818 108.211 22.414 107.545L23.717 106.778L23.1552 107.862C22.016 110.058 22.7669 110.309 25.467 108.632C26.8165 107.795 27.0814 107.488 26.6107 107.307C26.2733 107.178 25.5443 107.369 24.9907 107.73L23.9838 108.389L24.6206 107.16C25.4206 105.618 24.9205 104.907 23.6568 105.789C22.3987 106.668 22.1773 106.525 22.887 105.292C23.3113 104.556 23.3949 104.075 23.1422 103.823C22.8899 103.571 22.4244 104.057 21.7192 105.308ZM103.803 105.62C103.447 106.012 103.214 106.637 103.285 107.009C103.433 107.783 104.963 108.134 105.567 107.531C106.134 106.965 106.565 107.032 106.565 107.685C106.565 107.994 106.234 108.241 105.821 108.241C105.394 108.241 105.078 108.488 105.078 108.822C105.078 109.766 106.654 109.293 107.292 108.158C107.809 107.236 107.801 107.092 107.198 106.491C106.576 105.87 106.478 105.869 105.445 106.459C104.758 106.853 104.266 106.946 104.12 106.712C103.993 106.506 104.24 106.247 104.669 106.135C105.524 105.912 105.754 104.906 104.95 104.906C104.675 104.906 104.159 105.227 103.803 105.62ZM98.0155 112.162C92.5997 115.92 83.7634 119.689 77.1613 121.057C73.7237 121.769 73.3926 121.924 73.8221 122.617C74.5132 123.732 85.0936 120.647 91.3732 117.5C95.8738 115.245 100.991 111.965 100.991 111.336C100.991 110.377 100.319 110.563 98.0155 112.162ZM29.1577 111.452C28.6267 111.981 29.0035 112.381 31.5939 114.037C35.0349 116.236 40.5867 118.992 44.1435 120.265C47.4389 121.444 53.9336 123.06 55.383 123.061C56.6389 123.061 56.7879 122.043 55.5688 121.792C50.1471 120.679 48.2555 120.193 45.1062 119.1C40.8809 117.634 35.7944 115.171 32.1494 112.826C29.3813 111.045 29.5073 111.103 29.1577 111.452ZM63.2184 120.083C62.7766 120.268 62.3055 120.764 62.1717 121.185C61.7507 122.508 62.3043 123.355 63.9459 123.901C64.8049 124.186 65.5079 124.656 65.5079 124.945C65.5079 125.679 64.0547 125.808 63.4855 125.125C63.1251 124.692 62.8427 124.651 62.2798 124.951C61.5876 125.321 61.5813 125.384 62.1717 126.034C63.5282 127.529 66.4408 127.235 67.2226 125.524C67.8137 124.23 67.0992 123.168 65.3158 122.689C64.4471 122.456 63.8359 122.068 63.8359 121.75C63.8359 121.129 64.9866 121.022 65.5573 121.592C65.9586 121.992 67.1799 121.708 67.1799 121.214C67.1799 120.262 64.569 119.516 63.2184 120.083Z" fill="#04556D"/>
</svg>
