<svg width="107" height="107" viewBox="0 0 107 107" fill="none" xmlns="http://www.w3.org/2000/svg">
<path id="2023-09-28 20.19 1 (Traced)" fill-rule="evenodd" clip-rule="evenodd" d="M50.4036 18.8551C48.803 29.2248 47.3818 38.0743 47.2455 38.5197C47.0196 39.2591 45.8533 38.496 33.9937 29.8453C26.8416 24.6285 20.499 20.0083 19.899 19.5788L18.8081 18.7975L19.9662 20.4509C20.603 21.3604 25.2176 27.7056 30.2204 34.5513C37.4078 44.386 39.1868 47.0429 38.6986 47.2124C38.3586 47.3302 29.5126 48.7513 19.04 50.3705C8.56773 51.9897 -0.000371529 53.3978 1.2083e-08 53.5C0.000371553 53.6022 8.48488 54.9955 18.8549 56.5961C29.2246 58.1967 38.0688 59.6178 38.5087 59.7542C39.234 59.979 38.4649 61.1556 30.2092 72.4487C25.2046 79.2944 20.5923 85.6396 19.9592 86.5491L18.8081 88.2025L19.899 87.4145C20.499 86.9809 26.8416 82.3581 33.9937 77.1413C45.8912 68.4635 47.0189 67.726 47.2455 68.4736C47.3818 68.9228 48.803 77.7751 50.4036 88.1449C52.0042 98.5151 53.3975 107 53.4996 107C53.6018 107 55.01 98.4322 56.6291 87.9599C58.2483 77.4872 59.6694 68.6441 59.7872 68.3086C59.9555 67.8289 62.6778 69.6517 72.4482 76.7854C79.2939 81.7834 85.6461 86.3994 86.5642 87.0433L88.2339 88.2137L86.8829 86.3686C69.0126 61.9611 67.6598 60.005 68.4798 59.7542C68.9256 59.6178 77.7746 58.1967 88.1443 56.5961C98.5144 54.9955 107 53.5907 107 53.4747C107.001 53.3588 105.622 53.0731 103.936 52.8401C98.7655 52.1253 67.9106 47.2283 67.7846 47.1028C67.7196 47.0377 71.9329 41.1358 77.1475 33.9873C82.362 26.8388 86.9825 20.4992 87.415 19.8991L88.2019 18.8083L86.5485 19.9667C85.639 20.6036 79.2939 25.2137 72.4482 30.2109C62.702 37.3256 59.9552 39.1651 59.7872 38.6888C59.6694 38.3544 58.2483 29.5128 56.6291 19.0401C55.01 8.56778 53.6018 -0.000371531 53.4996 1.2083e-08C53.3975 0.000371555 52.0042 8.48493 50.4036 18.8551ZM53.4996 30.1831V53.309L50.2869 50.0959L47.0738 46.8832L50.1848 26.9703C51.8957 16.018 53.3417 7.05709 53.3978 7.05709C53.4539 7.05709 53.4996 17.4636 53.4996 30.1831ZM71.8991 34.9147C65.9801 40.8363 61.0081 45.5523 60.8498 45.394C60.6919 45.2361 60.5203 44.036 60.4679 42.7267L60.3731 40.3466L71.3336 32.2815C77.3618 27.8457 82.3765 24.2012 82.4776 24.1823C82.5783 24.1633 77.8181 28.993 71.8991 34.9147ZM45.4104 46.1141C45.2618 46.2523 44.1101 46.4808 42.8513 46.6216L40.5626 46.8776L38.5362 44.1512C37.4216 42.6517 33.7136 37.5794 30.2965 32.8793L24.0836 24.3339L34.8821 35.0982C40.8216 41.0184 45.5594 45.9755 45.4104 46.1141ZM79.9296 50.1628C90.4256 51.8013 99.2642 53.2028 99.5707 53.2778C99.8772 53.3525 89.6821 53.4331 76.9149 53.4569L53.7018 53.5L56.8435 50.3419C58.5715 48.6049 60.1788 47.1838 60.4155 47.1838C60.6522 47.1838 69.4335 48.5243 79.9296 50.1628ZM50.0863 56.7224L46.8639 59.9444L27.2391 56.884C16.4455 55.2006 7.44716 53.7638 7.24282 53.691C7.03847 53.6181 17.3197 53.5453 30.09 53.5293L53.3087 53.5L50.0863 56.7224ZM56.8769 79.7532C55.1979 90.551 53.7645 99.5528 53.6914 99.7571C53.6182 99.9615 53.545 89.6801 53.529 76.9098L53.4996 53.691L56.7146 56.9059L59.9291 60.1209L56.8769 79.7532ZM73.8537 70.2194C77.8058 75.6347 81.3875 80.5669 81.8129 81.18C82.2383 81.793 77.801 77.5344 71.9522 71.716C66.1034 65.898 61.4398 61.0193 61.5888 60.8751C61.9113 60.5619 64.0202 60.274 65.5639 60.3319C66.5656 60.3698 67.3336 61.2857 73.8537 70.2194ZM46.5121 64.2383L46.6261 66.6173L36.7803 73.8308C31.3651 77.7982 26.4329 81.3914 25.8199 81.8157C25.2068 82.2396 29.4654 77.8015 35.2837 71.9527C41.1017 66.1039 45.9826 61.4402 46.1298 61.5892C46.2773 61.7379 46.4493 62.9301 46.5121 64.2383Z" fill="#007295"/>
</svg>
