<svg width="311" height="310" viewBox="0 0 311 310" fill="none" xmlns="http://www.w3.org/2000/svg">
<ellipse cx="156.015" cy="155" rx="133.015" ry="133" fill="#4C9CB5" stroke="white" stroke-opacity="0.32" stroke-width="38.493"/>
<path d="M143.277 109L129.004 129.328C127.13 131.779 126.582 136.507 139.384 135.815C153.224 135.067 151.68 135.815 151.062 136.68C146.016 143.745 135.665 157.354 134.627 158.738" stroke="white" stroke-width="9"/>
<path d="M189.107 147.921C189.254 147.575 189.746 147.575 189.893 147.921L201.948 176.147C205.762 185.078 199.21 195 189.5 195V195C179.79 195 173.238 185.078 177.052 176.147L189.107 147.921Z" stroke="white" stroke-width="9"/>
<path d="M145.551 64.1295C149.982 56.4874 161.018 56.4874 165.449 64.1295L239.435 191.732C243.88 199.398 238.348 209 229.486 209H81.5141C72.6519 209 67.1202 199.398 71.5654 191.732L145.551 64.1295Z" stroke="white" stroke-width="9"/>
<line x1="192.677" y1="112.594" x2="125.677" y2="207.594" stroke="white" stroke-width="9"/>
</svg>
