<svg width="311" height="310" viewBox="0 0 311 310" fill="none" xmlns="http://www.w3.org/2000/svg">
<ellipse cx="156.015" cy="155" rx="133.015" ry="133" fill="#4C9CB5" stroke="white" stroke-opacity="0.32" stroke-width="38.493"/>
<path d="M125.34 75.5659C114.702 77.8021 105.504 85.6912 101.656 95.8477C99.5599 101.407 98.9342 106.905 99.8102 112.402C100.78 118.676 102.125 121.565 108.883 131.939L113.482 139.051L111.636 140.946C103.189 149.549 97.3386 161.569 95.4928 174.086C94.8357 178.435 94.8357 187.069 95.4928 191.418C97.6828 206.295 105.191 219.713 116.642 229.217C118.144 230.459 120.209 232.043 121.241 232.727L123.118 234H156H188.882L190.759 232.727C204.525 223.471 214.036 208.19 216.507 191.418C217.164 187.069 217.164 178.435 216.507 174.086C214.661 161.569 208.811 149.549 200.364 140.946L198.518 139.051L203.117 131.939C209.437 122.217 210.782 119.484 212.065 113.645C212.628 111.036 212.534 103.644 211.939 100.91C208.999 87.8343 199.081 78.1438 185.972 75.4727C183.876 75.0379 179.965 74.9757 155.781 75.0068C130.283 75.0068 127.78 75.0689 125.34 75.5659ZM181.592 84.6042C191.697 85.6602 199.488 92.2758 202.178 102.028C203.023 105.01 202.96 110.446 202.053 113.583C201.083 116.999 200.614 117.807 192.73 129.982L185.722 140.853L186.723 141.691C192.104 146.133 195.796 150.015 198.799 154.488C202.616 160.172 205.526 167.533 206.715 174.397C207.591 179.615 207.466 188.094 206.402 192.97C204.9 199.835 201.74 206.947 197.673 212.538C195.201 215.986 190.54 220.8 187.474 223.067L185.315 224.682H156H126.685L124.526 223.067C121.429 220.769 116.767 215.954 114.327 212.538C110.26 206.916 107.1 199.804 105.598 192.97C104.534 188.094 104.409 179.615 105.285 174.397C106.099 169.676 107.851 164.334 110.009 160.048C113.639 152.904 117.862 147.81 125.277 141.691L126.31 140.853L119.27 130.013C111.417 117.869 110.917 116.999 109.947 113.583C109.04 110.446 108.977 105.01 109.822 102.028C112.45 92.4622 120.365 85.6291 129.97 84.6352C133.474 84.2625 178.119 84.2314 181.592 84.6042Z" fill="white"/>
<path d="M127.691 94.5603C122.976 96.0324 119.331 100.081 118.23 105.049C117.759 107.134 118.042 110.569 118.796 112.563C119.268 113.698 128.194 127.621 133.725 135.81C133.882 136.024 134.92 135.81 136.868 135.104C144.223 132.528 149 131.669 155.977 131.669C162.955 131.669 167.732 132.528 175.055 135.104C176.658 135.656 178.01 136.055 178.104 135.994C178.952 135.104 192.436 114.219 193.001 112.87C196.05 105.601 191.839 96.8911 184.17 94.5296C182.441 94.0083 180.618 93.9776 155.883 94.0083C131.462 94.0083 129.294 94.0389 127.691 94.5603ZM181.938 103.976C183.478 105.08 184.107 106.184 184.107 107.717C184.107 109.251 184.233 109.036 175.904 121.61L173.955 124.585L171.126 123.88C161.855 121.579 150.257 121.579 140.954 123.88L138.031 124.585L136.051 121.641C129.451 111.643 128.005 109.312 127.816 108.484C127.376 106.368 129.137 103.914 131.368 103.454C132.028 103.332 143.468 103.27 156.826 103.27C180.775 103.332 181.09 103.332 181.938 103.976Z" fill="white"/>
</svg>
