<svg width="311" height="310" viewBox="0 0 311 310" fill="none" xmlns="http://www.w3.org/2000/svg">
<ellipse cx="156.015" cy="155" rx="133.015" ry="133" fill="#4C9CB5" stroke="white" stroke-opacity="0.32" stroke-width="38.493"/>
<circle cx="155.596" cy="153.596" r="54.5394" stroke="white" stroke-width="8.1133"/>
<circle cx="155.5" cy="153.5" r="87.4434" stroke="white" stroke-width="8.1133"/>
<circle cx="155.5" cy="153.5" r="7.44335" fill="white" stroke="white" stroke-width="8.1133"/>
<circle cx="174.818" cy="128.818" r="8.56404" stroke="white" stroke-width="4.50739"/>
<circle cx="136.818" cy="128.818" r="8.56404" stroke="white" stroke-width="4.50739"/>
<circle cx="125.818" cy="159.36" r="8.56404" stroke="white" stroke-width="4.50739"/>
<circle cx="184.818" cy="159.36" r="8.56404" stroke="white" stroke-width="4.50739"/>
<circle cx="155.818" cy="183.818" r="8.56404" stroke="white" stroke-width="4.50739"/>
<path d="M156.809 79.1377L155.568 78.7392L154.327 79.1377L151.383 80.0833L152.624 83.9456L146.736 85.8368L145.495 81.9745L143.081 82.75L140.547 82.8471L140.702 86.9008L134.522 87.1374L134.367 83.0838L131.277 83.2021L129.975 83.252L128.946 84.0507L126.503 85.9462L128.989 89.1513L124.103 92.9423L121.616 89.7372L119.613 91.2917L117.265 92.2496L118.797 96.0058L113.071 98.3418L111.539 94.5857L108.675 95.7537L107.469 96.2458L106.775 97.3485L105.127 99.9653L108.56 102.127L105.265 107.36L101.833 105.199L100.481 107.345L98.6025 109.048L101.327 112.054L96.7453 116.207L94.0207 113.202L91.7297 115.279L90.7644 116.154L90.4892 117.427L89.8361 120.45L93.8012 121.306L92.495 127.351L88.5299 126.494L87.9943 128.973L86.8113 131.216L90.3995 133.109L87.5146 138.579L83.9263 136.687L82.4839 139.422L81.8761 140.574L82.053 141.865L82.4731 144.929L86.4921 144.378L87.3321 150.505L83.3131 151.056L83.6576 153.568L83.3131 156.081L87.3321 156.632L86.4921 162.759L82.4731 162.208L82.053 165.271L81.8761 166.562L82.4839 167.714L83.9263 170.45L87.5146 168.557L90.3995 174.027L86.8113 175.92L87.9943 178.163L88.5299 180.642L92.495 179.785L93.8012 185.83L89.8361 186.686L90.4892 189.709L90.7644 190.982L91.7297 191.858L94.0207 193.934L96.7453 190.929L101.327 195.082L98.6025 198.088L100.481 199.791L101.833 201.937L105.265 199.776L108.56 205.01L105.127 207.171L106.775 209.788L107.469 210.89L108.675 211.382L111.539 212.55L113.071 208.794L118.797 211.13L117.265 214.886L119.613 215.844L121.616 217.399L124.103 214.194L128.989 217.985L126.503 221.19L128.946 223.085L129.975 223.884L131.277 223.934L134.367 224.052L134.522 219.999L140.702 220.235L140.547 224.289L143.081 224.386L145.495 225.162L146.736 221.299L152.624 223.19L151.383 227.053L154.327 227.998L155.568 228.397L156.809 227.998L159.753 227.053L158.512 223.19L164.4 221.299L165.641 225.162L168.055 224.386L170.589 224.289L170.434 220.235L176.614 219.999L176.769 224.052L179.859 223.934L181.161 223.884L182.19 223.085L184.634 221.19L182.147 217.985L187.033 214.194L189.52 217.399L191.523 215.844L193.871 214.886L192.339 211.13L198.065 208.794L199.598 212.55L202.461 211.382L203.667 210.89L204.361 209.788L206.009 207.171L202.576 205.01L205.871 199.776L209.304 201.937L210.655 199.791L212.534 198.088L209.809 195.082L214.391 190.929L217.115 193.934L219.406 191.858L220.372 190.982L220.647 189.709L221.3 186.686L217.335 185.83L218.641 179.785L222.606 180.642L223.142 178.163L224.325 175.92L220.737 174.027L223.621 168.557L227.21 170.45L228.652 167.714L229.26 166.562L229.083 165.271L228.663 162.208L224.644 162.759L223.804 156.632L227.823 156.081L227.479 153.568L227.823 151.056L223.804 150.505L224.644 144.378L228.663 144.929L229.083 141.865L229.26 140.574L228.652 139.422L227.21 136.687L223.621 138.579L220.737 133.109L224.325 131.216L223.142 128.973L222.606 126.494L218.641 127.351L217.335 121.306L221.3 120.45L220.647 117.427L220.372 116.154L219.406 115.279L217.115 113.202L214.391 116.207L209.809 112.054L212.534 109.048L210.655 107.345L209.304 105.199L205.871 107.36L202.576 102.127L206.009 99.9653L204.361 97.3485L203.667 96.2458L202.461 95.7537L199.598 94.5857L198.065 98.3418L192.339 96.0058L193.871 92.2496L191.523 91.2917L189.52 89.7372L187.033 92.9423L182.147 89.1513L184.634 85.9462L182.19 84.0507L181.161 83.252L179.859 83.2021L176.769 83.0838L176.614 87.1374L170.434 86.9008L170.589 82.8471L168.055 82.75L165.641 81.9745L164.4 85.8368L158.512 83.9456L159.753 80.0833L156.809 79.1377Z" stroke="white" stroke-width="8.1133" stroke-dasharray="16.23 16.23"/>
</svg>
