<svg width="311" height="310" viewBox="0 0 311 310" fill="none" xmlns="http://www.w3.org/2000/svg">
<ellipse cx="156.015" cy="155" rx="133.015" ry="133" fill="#4C9CB5" stroke="white" stroke-opacity="0.32" stroke-width="38.493"/>
<path d="M157.707 184C169.373 184 196.507 184 211.707 184C226.907 184 226.707 189.5 224.207 194C223.373 195.5 220.607 200.8 216.207 210C211.185 220.5 211 223.5 205.5 224H117.207C114.707 224.333 109.307 222.5 107.707 212.5C106.107 202.5 92.7067 129.333 86.2067 94.0001C85.54 90.6668 86.1067 83.9001 93.7067 83.5001C103.207 83.0001 114.707 88.5001 119.207 98.0001C122.807 105.6 137.373 134.833 144.207 148.5C147 157 147 166 144.207 174C142.437 179.067 136.207 191.333 133.707 197" stroke="white" stroke-width="9"/>
</svg>
