<svg width="311" height="310" viewBox="0 0 311 310" fill="none" xmlns="http://www.w3.org/2000/svg">
<ellipse cx="156.015" cy="155" rx="133.015" ry="133" fill="#4C9CB5" stroke="white" stroke-opacity="0.32" stroke-width="38.493"/>
<path d="M82 222C90.9106 205.142 99.8213 203.509 108.732 217.1C110.053 219.115 113.147 219.115 114.468 217.1C122.423 204.967 130.377 204.967 138.332 217.1C139.653 219.115 142.747 219.115 144.068 217.1C152.023 204.967 159.977 204.967 167.932 217.1C169.253 219.115 172.347 219.115 173.668 217.1C181.623 204.967 189.577 204.967 197.532 217.1C198.853 219.115 201.947 219.115 203.268 217.1C212.179 203.509 221.089 205.142 230 222" stroke="white" stroke-width="9"/>
<path d="M82 200C90.9106 183.142 99.8213 181.509 108.732 195.1C110.053 197.115 113.147 197.115 114.468 195.1C122.423 182.967 130.377 182.967 138.332 195.1C139.653 197.115 142.747 197.115 144.068 195.1C152.023 182.967 159.977 182.967 167.932 195.1C169.253 197.115 172.347 197.115 173.668 195.1C181.623 182.967 189.577 182.967 197.532 195.1C198.853 197.115 201.947 197.115 203.268 195.1C212.179 181.509 221.089 183.142 230 200" stroke="white" stroke-width="9"/>
<path d="M90.2947 107.27C90.3509 107.079 90.5149 106.94 90.7124 106.915L104.721 105.164C105.055 105.122 105.333 105.415 105.276 105.746L103.661 115.033C103.617 115.284 103.392 115.462 103.138 115.447L88.7833 114.577C88.4627 114.557 88.2433 114.245 88.3339 113.937L90.2947 107.27Z" fill="white" stroke="white"/>
<path d="M219.705 107.27C219.649 107.079 219.485 106.94 219.288 106.915L205.279 105.164C204.945 105.122 204.667 105.415 204.724 105.746L206.339 115.033C206.383 115.284 206.608 115.462 206.862 115.447L221.217 114.577C221.537 114.557 221.757 114.245 221.666 113.937L219.705 107.27Z" fill="white" stroke="white"/>
<rect x="192" y="129" width="35" height="73" transform="rotate(90 192 129)" stroke="white" stroke-width="9"/>
<path d="M201.827 87.8L208 118.67L194.111 127L115.404 127L101 118.67L107.173 87.8L125.692 78L154.5 78L183.308 78L201.827 87.8Z" stroke="white" stroke-width="9"/>
<path d="M136.33 67H173.584L181 78H128L136.33 67Z" stroke="white" stroke-width="9"/>
<mask id="path-9-inside-1_1_5734" fill="white">
<rect x="189" y="123" width="35" height="70" rx="7"/>
</mask>
<rect x="189" y="123" width="35" height="70" rx="7" stroke="white" stroke-width="18" mask="url(#path-9-inside-1_1_5734)"/>
<mask id="path-10-inside-2_1_5734" fill="white">
<rect x="86" y="123" width="35" height="70" rx="7"/>
</mask>
<rect x="86" y="123" width="35" height="70" rx="7" stroke="white" stroke-width="18" mask="url(#path-10-inside-2_1_5734)"/>
</svg>
