<svg width="311" height="310" viewBox="0 0 311 310" fill="none" xmlns="http://www.w3.org/2000/svg">
<ellipse cx="156.015" cy="155" rx="133.015" ry="133" fill="#4C9CB5" stroke="white" stroke-opacity="0.32" stroke-width="38.493"/>
<path d="M180 128.513V118H128.867C124.279 118 119.946 120.867 118.353 122.301C114.849 125.965 105.194 132.241 99.4596 137.593C93.725 142.181 95.1595 149.062 95.1595 149.062C96.5923 161.009 107.583 171.522 118.353 172H135.62C135.62 143.327 158.08 129.469 180 128.513Z" stroke="white" stroke-width="9"/>
<path d="M221 145C216.254 145 211.863 145 183.336 145C160.11 145 151 164.094 151 171.362C151 182.477 151 198.779 201.5 219" stroke="white" stroke-width="9"/>
<path d="M63 121.5L85.5 109.809L85.5 133.191L63 121.5Z" fill="white"/>
<path d="M85 121.5C98.5 120.667 125.7 124.3 126.5 145.5" stroke="white" stroke-width="9"/>
<mask id="path-6-outside-1_1_5747" maskUnits="userSpaceOnUse" x="136.95" y="130.657" width="86.1014" height="86.9322" fill="black">
<rect fill="white" x="136.95" y="130.657" width="86.1014" height="86.9322"/>
<path fill-rule="evenodd" clip-rule="evenodd" d="M171.996 151.984C172.572 151.768 173.182 152.153 173.372 152.738C174.293 155.576 176.909 157.674 180.064 157.789C183.366 157.909 186.236 155.82 187.251 152.846C187.45 152.265 188.065 151.889 188.637 152.113C191.007 153.041 193.231 154.359 195.203 156.033C195.671 156.43 195.632 157.15 195.212 157.598C194.035 158.856 193.289 160.529 193.221 162.386C193.073 166.473 196.266 169.907 200.353 170.055C200.884 170.075 201.403 170.038 201.906 169.949C202.511 169.844 203.136 170.203 203.213 170.812C203.538 173.365 203.431 175.931 202.923 178.407C202.793 179.04 202.087 179.344 201.473 179.144C200.839 178.938 200.167 178.815 199.468 178.79C195.432 178.643 192.041 181.796 191.894 185.832C191.822 187.818 192.549 189.648 193.787 191.012C194.221 191.49 194.23 192.26 193.705 192.636C192.864 193.238 191.973 193.791 191.034 194.288C190.297 194.679 189.549 195.025 188.792 195.329C188.176 195.577 187.518 195.124 187.367 194.477C186.636 191.343 183.882 188.957 180.51 188.835C176.934 188.705 173.864 191.166 173.109 194.537C172.964 195.184 172.312 195.641 171.694 195.4C169.187 194.422 166.843 193.009 164.786 191.198C164.322 190.79 164.379 190.065 164.814 189.625C166.074 188.352 166.878 186.62 166.948 184.688C167.096 180.601 163.904 177.167 159.816 177.019C159.312 177 158.817 177.033 158.337 177.112C157.726 177.213 157.101 176.84 157.035 176.225C156.751 173.564 156.934 170.895 157.549 168.334C157.7 167.705 158.419 167.424 159.026 167.65C159.724 167.909 160.471 168.066 161.249 168.102C165.306 168.288 168.684 165.111 168.794 161.007C168.845 159.123 168.199 157.371 167.092 156.009C166.693 155.518 166.722 154.768 167.249 154.417C167.895 153.987 168.569 153.585 169.269 153.214C170.163 152.74 171.074 152.331 171.996 151.984ZM185.053 165.821C180.795 163.151 175.179 164.439 172.509 168.698C169.84 172.956 171.128 178.572 175.386 181.242C179.645 183.911 185.261 182.623 187.93 178.365C190.6 174.106 189.312 168.49 185.053 165.821Z"/>
</mask>
<path d="M180.064 157.789L180.391 148.794L180.391 148.794L180.064 157.789ZM193.221 162.386L184.227 162.059L184.227 162.059L193.221 162.386ZM200.353 170.055L200.68 161.061L200.68 161.061L200.353 170.055ZM199.468 178.79L199.141 187.784L199.141 187.784L199.468 178.79ZM191.894 185.832L182.9 185.505L182.9 185.505L191.894 185.832ZM180.51 188.835L180.184 197.829L180.51 188.835ZM166.948 184.688L175.942 185.015L175.942 185.015L166.948 184.688ZM159.816 177.019L159.49 186.013L159.49 186.013L159.816 177.019ZM161.249 168.102L161.662 159.111L161.662 159.111L161.249 168.102ZM168.794 161.007L177.791 161.249L177.791 161.249L168.794 161.007ZM172.509 168.698L180.135 173.478L180.135 173.478L172.509 168.698ZM185.053 165.821L180.273 173.446L180.273 173.446L185.053 165.821ZM175.386 181.242L170.606 188.867L170.606 188.867L175.386 181.242ZM187.93 178.365L180.305 173.585L180.305 173.585L187.93 178.365ZM167.092 156.009L174.079 150.335L167.092 156.009ZM159.026 167.65L155.892 176.087L159.026 167.65ZM188.792 195.329L192.148 203.68L188.792 195.329ZM187.367 194.477L178.602 196.521L187.367 194.477ZM193.787 191.012L200.451 184.963L193.787 191.012ZM193.705 192.636L198.944 199.954L193.705 192.636ZM203.213 170.812L212.141 169.676L203.213 170.812ZM173.109 194.537L181.892 196.503L173.109 194.537ZM171.694 195.4L168.423 203.785L171.694 195.4ZM195.203 156.033L201.028 149.172L195.203 156.033ZM195.212 157.598L188.64 151.448L195.212 157.598ZM158.337 177.112L159.799 185.993L158.337 177.112ZM202.923 178.407L194.106 176.599L202.923 178.407ZM201.473 179.144L198.683 187.701L201.473 179.144ZM187.251 152.846L178.734 149.939L187.251 152.846ZM188.637 152.113L191.919 143.733L188.637 152.113ZM173.372 152.738L181.933 149.96L173.372 152.738ZM164.811 155.515C166.862 161.834 172.684 166.526 179.737 166.783L180.391 148.794C181.133 148.821 181.724 149.318 181.933 149.96L164.811 155.515ZM179.737 166.783C187.117 167.051 193.507 162.38 195.769 155.753L178.734 149.939C178.966 149.259 179.616 148.766 180.391 148.794L179.737 166.783ZM185.355 160.493C186.813 161.064 188.175 161.872 189.378 162.894L201.028 149.172C198.286 146.845 195.2 145.018 191.919 143.733L185.355 160.493ZM202.215 162.713C202.201 163.106 202.033 163.48 201.784 163.747L188.64 151.448C186.037 154.231 184.377 157.951 184.227 162.059L202.215 162.713ZM200.68 161.061C201.56 161.093 202.247 161.833 202.215 162.713L184.227 162.059C183.898 171.113 190.971 178.72 200.026 179.049L200.68 161.061ZM200.354 161.084C200.468 161.064 200.578 161.058 200.68 161.061L200.026 179.049C201.19 179.092 202.339 179.011 203.459 178.815L200.354 161.084ZM194.285 171.949C194.483 173.505 194.419 175.076 194.106 176.599L211.74 180.215C212.443 176.786 212.593 173.225 212.141 169.676L194.285 171.949ZM204.263 170.588C202.841 170.124 201.34 169.852 199.795 169.796L199.141 187.784C198.994 187.778 198.838 187.752 198.683 187.701L204.263 170.588ZM199.795 169.796C190.792 169.468 183.228 176.502 182.9 185.505L200.888 186.159C200.854 187.09 200.072 187.818 199.141 187.784L199.795 169.796ZM182.9 185.505C182.739 189.932 184.37 194.027 187.122 197.06L200.451 184.963C200.728 185.268 200.905 185.704 200.888 186.159L182.9 185.505ZM188.467 185.317C187.952 185.686 187.403 186.027 186.82 186.336L195.247 202.241C196.543 201.554 197.776 200.789 198.944 199.954L188.467 185.317ZM186.82 186.336C186.362 186.578 185.901 186.792 185.436 186.978L192.148 203.68C193.197 203.259 194.231 202.779 195.247 202.241L186.82 186.336ZM180.184 197.829C179.393 197.8 178.77 197.241 178.602 196.521L196.132 192.434C194.503 185.445 188.37 180.114 180.837 179.841L180.184 197.829ZM181.892 196.503C181.717 197.286 181.019 197.859 180.184 197.829L180.837 179.841C172.849 179.55 166.011 185.046 164.327 192.571L181.892 196.503ZM174.965 187.016C173.423 186.414 171.987 185.547 170.733 184.443L158.839 197.953C161.699 200.471 164.952 202.431 168.423 203.785L174.965 187.016ZM171.212 195.954C173.997 193.139 175.786 189.289 175.942 185.015L157.954 184.361C157.969 183.95 158.15 183.564 158.415 183.296L171.212 195.954ZM175.942 185.015C176.271 175.961 169.198 168.354 160.143 168.025L159.49 186.013C158.609 185.981 157.922 185.241 157.954 184.361L175.942 185.015ZM160.143 168.025C159.037 167.984 157.942 168.056 156.874 168.232L159.799 185.993C159.691 186.01 159.587 186.016 159.49 186.013L160.143 168.025ZM165.984 175.27C165.811 173.647 165.922 172.011 166.3 170.435L148.798 166.233C147.947 169.778 147.691 173.481 148.086 177.18L165.984 175.27ZM155.892 176.087C157.447 176.664 159.11 177.013 160.836 177.092L161.662 159.111C161.831 159.119 162.001 159.154 162.16 159.213L155.892 176.087ZM160.836 177.092C170.021 177.514 177.548 170.293 177.791 161.249L159.798 160.765C159.82 159.93 160.591 159.062 161.662 159.111L160.836 177.092ZM177.791 161.249C177.902 157.125 176.481 153.294 174.079 150.335L160.106 161.683C159.916 161.449 159.788 161.122 159.798 160.765L177.791 161.249ZM172.236 161.909C172.633 161.645 173.048 161.397 173.483 161.167L165.056 145.261C164.089 145.773 163.158 146.329 162.262 146.925L172.236 161.909ZM173.483 161.167C174.038 160.873 174.599 160.62 175.164 160.408L168.828 143.56C167.548 144.041 166.288 144.608 165.056 145.261L173.483 161.167ZM180.135 173.478C180.145 173.462 180.151 173.456 180.152 173.454C180.154 173.452 180.156 173.451 180.158 173.45C180.162 173.446 180.176 173.439 180.197 173.434C180.219 173.429 180.234 173.43 180.24 173.431C180.242 173.431 180.244 173.431 180.247 173.432C180.249 173.433 180.257 173.436 180.273 173.446L189.833 158.195C181.364 152.886 170.193 155.448 164.884 163.918L180.135 173.478ZM180.167 173.616C180.151 173.606 180.144 173.6 180.142 173.599C180.141 173.597 180.139 173.595 180.138 173.593C180.135 173.589 180.127 173.575 180.122 173.554C180.117 173.532 180.118 173.517 180.119 173.511C180.119 173.509 180.12 173.507 180.121 173.504C180.122 173.502 180.125 173.494 180.135 173.478L164.884 163.918C159.574 172.388 162.136 183.558 170.606 188.867L180.167 173.616ZM180.305 173.585C180.295 173.6 180.289 173.607 180.287 173.609C180.285 173.611 180.284 173.612 180.282 173.613C180.277 173.616 180.264 173.624 180.242 173.629C180.221 173.634 180.205 173.633 180.199 173.632C180.197 173.632 180.195 173.631 180.193 173.63C180.191 173.629 180.182 173.626 180.167 173.616L170.606 188.867C179.076 194.177 190.246 191.615 195.556 183.145L180.305 173.585ZM180.273 173.446C180.289 173.456 180.296 173.463 180.297 173.464C180.299 173.466 180.3 173.467 180.302 173.469C180.305 173.474 180.313 173.487 180.318 173.509C180.322 173.53 180.321 173.546 180.32 173.552C180.32 173.554 180.32 173.556 180.319 173.558C180.318 173.56 180.315 173.569 180.305 173.585L195.556 183.145C200.865 174.675 198.303 163.505 189.833 158.195L180.273 173.446ZM174.079 150.335C175.329 151.875 175.955 153.848 175.795 155.87C175.628 157.988 174.542 160.375 172.236 161.909L162.262 146.925C156.287 150.902 157.194 158.097 160.106 161.683L174.079 150.335ZM166.3 170.435C165.638 173.193 163.704 175.047 161.737 175.911C159.864 176.734 157.773 176.785 155.892 176.087L162.16 159.213C157.821 157.601 150.518 159.067 148.798 166.233L166.3 170.435ZM170.733 184.443C175.054 188.247 173.516 193.625 171.212 195.954L158.415 183.296C155.242 186.504 153.591 193.333 158.839 197.953L170.733 184.443ZM185.436 186.978C188.144 185.89 190.837 186.455 192.684 187.612C194.437 188.711 195.668 190.442 196.132 192.434L178.602 196.521C179.66 201.059 185.093 206.515 192.148 203.68L185.436 186.978ZM187.122 197.06C185.78 195.581 185.048 193.63 185.11 191.591C185.174 189.449 186.164 186.965 188.467 185.317L198.944 199.954C204.923 195.674 203.549 188.377 200.451 184.963L187.122 197.06ZM203.459 178.815C200.261 179.374 195.007 177.617 194.285 171.949L212.141 169.676C211.265 162.79 204.761 160.313 200.354 161.084L203.459 178.815ZM164.327 192.571C164.773 190.575 165.989 188.832 167.732 187.718C169.568 186.545 172.252 185.957 174.965 187.016L168.423 203.785C175.491 206.542 180.873 201.056 181.892 196.503L164.327 192.571ZM189.378 162.894C185.026 159.199 186.41 153.832 188.64 151.448L201.784 163.747C204.853 160.467 206.315 153.661 201.028 149.172L189.378 162.894ZM156.874 168.232C160.089 167.702 165.373 169.539 165.984 175.27L148.086 177.18C148.829 184.141 155.363 186.723 159.799 185.993L156.874 168.232ZM194.106 176.599C194.675 173.827 196.54 171.914 198.465 170.984C200.297 170.099 202.37 169.971 204.263 170.588L198.683 187.701C203.048 189.124 210.263 187.416 211.74 180.215L194.106 176.599ZM195.769 155.753C194.727 158.806 190.676 162.577 185.355 160.493L191.919 143.733C185.454 141.201 180.172 145.724 178.734 149.939L195.769 155.753ZM181.933 149.96C180.558 145.722 175.337 141.112 168.828 143.56L175.164 160.408C169.806 162.423 165.807 158.584 164.811 155.515L181.933 149.96Z" fill="white" mask="url(#path-6-outside-1_1_5747)"/>
<circle cx="180.092" cy="174.092" r="28.8563" transform="rotate(-27.9179 180.092 174.092)" stroke="white" stroke-width="9"/>
</svg>
