<svg width="311" height="310" viewBox="0 0 311 310" fill="none" xmlns="http://www.w3.org/2000/svg">
<ellipse cx="156.015" cy="155" rx="133.015" ry="133" fill="#4C9CB5" stroke="white" stroke-opacity="0.32" stroke-width="38.493"/>
<path d="M91.2947 132.27C91.3509 132.079 91.5149 131.94 91.7124 131.915L105.721 130.164C106.055 130.122 106.333 130.415 106.276 130.746L104.661 140.033C104.617 140.284 104.392 140.462 104.138 140.447L89.7833 139.577C89.4627 139.557 89.2433 139.245 89.3339 138.937L91.2947 132.27Z" fill="white" stroke="white"/>
<path d="M220.705 132.27C220.649 132.079 220.485 131.94 220.288 131.915L206.279 130.164C205.945 130.122 205.667 130.415 205.724 130.746L207.339 140.033C207.383 140.284 207.608 140.462 207.862 140.447L222.217 139.577C222.537 139.557 222.757 139.245 222.666 138.937L220.705 132.27Z" fill="white" stroke="white"/>
<rect x="193" y="154" width="35" height="73" transform="rotate(90 193 154)" stroke="white" stroke-width="9"/>
<path d="M202.827 112.8L209 143.67L195.111 152L116.404 152L102 143.67L108.173 112.8L126.692 103L155.5 103L184.308 103L202.827 112.8Z" stroke="white" stroke-width="9"/>
<path d="M137.33 92H174.584L182 103H129L137.33 92Z" stroke="white" stroke-width="9"/>
<mask id="path-7-inside-1_1_5813" fill="white">
<rect x="190" y="148" width="35" height="70" rx="7"/>
</mask>
<rect x="190" y="148" width="35" height="70" rx="7" stroke="white" stroke-width="18" mask="url(#path-7-inside-1_1_5813)"/>
<mask id="path-8-inside-2_1_5813" fill="white">
<rect x="87" y="148" width="35" height="70" rx="7"/>
</mask>
<rect x="87" y="148" width="35" height="70" rx="7" stroke="white" stroke-width="18" mask="url(#path-8-inside-2_1_5813)"/>
<path fill-rule="evenodd" clip-rule="evenodd" d="M192.062 137.344C192.531 133.986 195.574 132 198.379 132C201.428 132 204.759 134.346 204.759 138.25C204.759 142.154 201.428 144.5 198.379 144.5C197.479 144.5 196.553 144.295 195.697 143.906C195.228 147.264 192.184 149.25 189.379 149.25C186.331 149.25 183 146.904 183 143C183 139.096 186.331 136.75 189.379 136.75C190.28 136.75 191.205 136.955 192.062 137.344ZM198.379 142C199.904 142 202 140.773 202 138.25C202 135.727 199.904 134.5 198.379 134.5C196.854 134.5 194.759 135.727 194.759 138.25C194.759 140.773 196.854 142 198.379 142ZM189.379 146.75C190.904 146.75 193 145.523 193 143C193 140.477 190.904 139.25 189.379 139.25C187.854 139.25 185.759 140.477 185.759 143C185.759 145.523 187.854 146.75 189.379 146.75Z" fill="white"/>
<path d="M196 142.5L201.5 144.5L193.5 148.5L196 142.5Z" fill="white"/>
<path fill-rule="evenodd" clip-rule="evenodd" d="M118.438 137.344C117.969 133.986 114.926 132 112.121 132C109.072 132 105.741 134.346 105.741 138.25C105.741 142.154 109.072 144.5 112.121 144.5C113.021 144.5 113.947 144.295 114.803 143.906C115.272 147.264 118.316 149.25 121.121 149.25C124.169 149.25 127.5 146.904 127.5 143C127.5 139.096 124.169 136.75 121.121 136.75C120.22 136.75 119.295 136.955 118.438 137.344ZM112.121 142C110.596 142 108.5 140.773 108.5 138.25C108.5 135.727 110.596 134.5 112.121 134.5C113.646 134.5 115.741 135.727 115.741 138.25C115.741 140.773 113.646 142 112.121 142ZM121.121 146.75C119.596 146.75 117.5 145.523 117.5 143C117.5 140.477 119.596 139.25 121.121 139.25C122.646 139.25 124.741 140.477 124.741 143C124.741 145.523 122.646 146.75 121.121 146.75Z" fill="white"/>
<path d="M114.5 142.5L109 144.5L117 148.5L114.5 142.5Z" fill="white"/>
</svg>
