<svg width="311" height="310" viewBox="0 0 311 310" fill="none" xmlns="http://www.w3.org/2000/svg">
<ellipse cx="156.015" cy="155" rx="133.015" ry="133" fill="#4C9CB5" stroke="white" stroke-opacity="0.32" stroke-width="38.493"/>
<path fill-rule="evenodd" clip-rule="evenodd" d="M77 110.981L122 136.962V114.436C134.386 118.976 143.5 130.856 143.5 145.188L143.5 184.688H152.5L152.5 145.188C152.5 125.742 139.341 109.837 122 104.982L122 85L77 110.981ZM152.5 197.688H143.5V234.188H152.5V197.688Z" fill="white"/>
<path fill-rule="evenodd" clip-rule="evenodd" d="M234.5 110.981L189.5 136.962V114.436C177.114 118.976 168 130.856 168 145.188L168 184.688H159L159 145.188C159 125.742 172.159 109.837 189.5 104.982L189.5 85L234.5 110.981ZM159 197.688H168V234.188H159V197.688Z" fill="white"/>
</svg>
