<svg width="311" height="310" viewBox="0 0 311 310" fill="none" xmlns="http://www.w3.org/2000/svg">
<ellipse cx="156.015" cy="155" rx="133.015" ry="133" fill="#4C9CB5" stroke="white" stroke-opacity="0.32" stroke-width="38.493"/>
<path fill-rule="evenodd" clip-rule="evenodd" d="M190.137 143.687L200.743 133.08C202.696 131.127 202.696 127.961 200.743 126.009L184.48 109.745C182.527 107.793 179.361 107.793 177.409 109.745L166.802 120.352L190.137 143.687ZM190.844 103.381C185.376 97.9141 176.512 97.9141 171.045 103.381L154.074 120.352L190.137 156.414L207.107 139.444C212.575 133.977 212.575 125.112 207.107 119.645L190.844 103.381Z" fill="white"/>
<path fill-rule="evenodd" clip-rule="evenodd" d="M214.886 95.6032C210.98 91.6979 204.649 91.6979 200.743 95.6032C196.838 99.5084 196.838 105.84 200.743 109.745C204.649 113.651 210.98 113.651 214.886 109.745C218.791 105.84 218.791 99.5084 214.886 95.6032ZM194.379 89.2392C201.799 81.8193 213.83 81.8193 221.249 89.2392C228.669 96.6592 228.669 108.689 221.249 116.109C213.83 123.529 201.799 123.529 194.379 116.109C186.959 108.689 186.959 96.6592 194.379 89.2392Z" fill="white"/>
<path fill-rule="evenodd" clip-rule="evenodd" d="M96.7989 213.69C100.704 217.596 107.036 217.596 110.941 213.69C114.846 209.785 114.846 203.453 110.941 199.548C107.036 195.643 100.704 195.643 96.7989 199.548C92.8937 203.453 92.8937 209.785 96.7989 213.69ZM117.305 220.054C109.885 227.474 97.8549 227.474 90.435 220.054C83.015 212.634 83.015 200.604 90.435 193.184C97.8549 185.764 109.885 185.764 117.305 193.184C124.725 200.604 124.725 212.634 117.305 220.054Z" fill="white"/>
<path fill-rule="evenodd" clip-rule="evenodd" d="M175.995 130.958L159.731 147.222L153.367 140.858L169.631 124.594L175.995 130.958Z" fill="white"/>
<path fill-rule="evenodd" clip-rule="evenodd" d="M123.669 183.284L109.526 197.426L103.162 191.062L117.305 176.92L123.669 183.284Z" fill="white"/>
<path fill-rule="evenodd" clip-rule="evenodd" d="M186.602 141.565L170.338 157.829L163.974 151.465L180.238 135.201L186.602 141.565Z" fill="white"/>
<path fill-rule="evenodd" clip-rule="evenodd" d="M134.276 193.891L120.133 208.033L113.77 201.669L127.912 187.527L134.276 193.891Z" fill="white"/>
<path fill-rule="evenodd" clip-rule="evenodd" d="M169.631 178.335L127.204 152.879L131.835 145.162L174.261 170.617L169.631 178.335Z" fill="white"/>
<path fill-rule="evenodd" clip-rule="evenodd" d="M157.61 190.355L115.184 164.9L119.814 157.182L162.241 182.638L157.61 190.355Z" fill="white"/>
<path fill-rule="evenodd" clip-rule="evenodd" d="M145.589 202.376L103.163 176.921L107.793 169.203L150.22 194.659L145.589 202.376Z" fill="white"/>
<path fill-rule="evenodd" clip-rule="evenodd" d="M181.652 166.314L139.225 140.858L143.856 133.141L186.282 158.596L181.652 166.314Z" fill="white"/>
</svg>
