<svg width="311" height="310" viewBox="0 0 311 310" fill="none" xmlns="http://www.w3.org/2000/svg">
<ellipse cx="156.015" cy="155" rx="133.015" ry="133" fill="#4C9CB5" stroke="white" stroke-opacity="0.32" stroke-width="38.493"/>
<mask id="path-2-outside-1_1_5860" maskUnits="userSpaceOnUse" x="85" y="82" width="141" height="147" fill="black">
<rect fill="white" x="85" y="82" width="141" height="147"/>
<path fill-rule="evenodd" clip-rule="evenodd" d="M166.273 91.8218C166.879 91.9195 167.242 92.544 167.074 93.1352C164.602 101.846 168.237 111.448 176.436 116.182C184.982 121.115 195.629 119.111 201.855 111.916C202.257 111.452 202.977 111.411 203.392 111.864C209.076 118.061 213.561 125.375 216.48 133.439C216.689 134.016 216.321 134.635 215.724 134.776C210.411 136.026 205.607 139.383 202.663 144.482C197.002 154.287 200.361 166.826 210.167 172.487C212.066 173.583 214.067 174.341 216.101 174.779C216.701 174.909 217.081 175.521 216.883 176.102C214.11 184.242 209.752 191.648 204.177 197.952C203.749 198.435 202.983 198.377 202.589 197.866C201.022 195.834 199.041 194.068 196.681 192.706C186.998 187.116 174.616 190.433 169.026 200.116C165.872 205.578 165.554 211.899 167.613 217.375C167.84 217.979 167.486 218.661 166.849 218.77C163.31 219.373 159.672 219.687 155.961 219.687C152.852 219.687 149.793 219.467 146.802 219.04C146.144 218.947 145.774 218.241 146.017 217.623C149.622 208.454 146.077 197.781 137.287 192.706C128.014 187.352 116.266 190.168 110.378 198.92C110.008 199.47 109.219 199.567 108.768 199.081C102.711 192.548 97.9939 184.756 95.053 176.141C94.8534 175.556 95.2393 174.941 95.8447 174.816C101.386 173.679 106.433 170.267 109.484 164.983C115.145 155.178 111.785 142.639 101.98 136.978C100.138 135.915 98.1998 135.17 96.2287 134.726C95.6254 134.59 95.2508 133.966 95.4619 133.385C98.4967 125.025 103.215 117.473 109.207 111.138C109.651 110.668 110.417 110.754 110.792 111.281C112.409 113.554 114.507 115.525 117.042 117.021C126.725 122.736 139.106 119.344 144.697 109.446C147.644 104.228 148.115 98.2437 146.483 92.9136C146.298 92.3083 146.677 91.6618 147.304 91.5774C150.136 91.1966 153.026 91 155.961 91C159.471 91 162.915 91.281 166.273 91.8218ZM178.229 142.297C171.272 130.247 155.864 126.119 143.815 133.076C131.765 140.033 127.636 155.441 134.593 167.49C141.55 179.54 156.958 183.669 169.008 176.712C181.058 169.755 185.186 154.347 178.229 142.297Z"/>
</mask>
<path d="M176.436 116.182L171.936 123.976L176.436 116.182ZM202.663 144.482L210.457 148.982L202.663 144.482ZM210.167 172.487L205.667 180.281L210.167 172.487ZM196.681 192.706L192.181 200.5H192.181L196.681 192.706ZM169.026 200.116L176.82 204.616L169.026 200.116ZM137.287 192.706L132.787 200.5L137.287 192.706ZM109.484 164.983L101.69 160.483H101.69L109.484 164.983ZM101.98 136.978L97.48 144.773H97.48L101.98 136.978ZM117.042 117.021L121.616 109.27L121.616 109.27L117.042 117.021ZM144.697 109.446L136.86 105.02V105.02L144.697 109.446ZM178.229 142.297L186.024 137.797L178.229 142.297ZM134.593 167.49L142.388 162.99L134.593 167.49ZM169.008 176.712L164.508 168.918L169.008 176.712ZM146.483 92.9136L155.089 90.2791L146.483 92.9136ZM147.304 91.5774L146.105 82.6577L147.304 91.5774ZM109.207 111.138L102.668 104.954L109.207 111.138ZM110.792 111.281L118.127 106.065L110.792 111.281ZM95.053 176.141L103.57 173.234L95.053 176.141ZM95.8447 174.816L97.6543 183.632L95.8447 174.816ZM146.802 219.04L145.532 227.95L146.802 219.04ZM146.017 217.623L137.641 214.33L146.017 217.623ZM167.613 217.375L176.037 214.207L167.613 217.375ZM166.849 218.77L165.337 209.898L166.849 218.77ZM216.101 174.779L217.997 165.981L216.101 174.779ZM216.883 176.102L225.402 179.004L216.883 176.102ZM110.378 198.92L102.911 193.896L110.378 198.92ZM108.768 199.081L115.368 192.961L108.768 199.081ZM216.48 133.439L224.943 130.375L216.48 133.439ZM215.724 134.776L217.786 143.537L215.724 134.776ZM95.4619 133.385L103.922 136.456L95.4619 133.385ZM204.177 197.952L197.435 191.99L204.177 197.952ZM202.589 197.866L209.716 192.37L202.589 197.866ZM203.392 111.864L196.759 117.947L203.392 111.864ZM167.074 93.1352L158.416 90.678L167.074 93.1352ZM166.273 91.8218L167.704 82.9363L166.273 91.8218ZM158.416 90.678C154.845 103.259 160.082 117.132 171.936 123.976L180.936 108.387C176.393 105.764 174.359 100.432 175.732 95.5923L158.416 90.678ZM171.936 123.976C184.289 131.108 199.664 128.202 208.661 117.805L195.05 106.027C191.595 110.019 185.674 111.123 180.936 108.387L171.936 123.976ZM196.759 117.947C201.654 123.284 205.51 129.576 208.018 136.503L224.943 130.375C221.612 121.174 216.498 112.838 210.025 105.78L196.759 117.947ZM210.457 148.982C212.109 146.121 214.789 144.242 217.786 143.537L213.662 126.015C206.034 127.811 199.105 132.644 194.869 139.982L210.457 148.982ZM214.667 164.692C209.166 161.517 207.281 154.483 210.457 148.982L194.869 139.982C186.722 154.092 191.557 172.134 205.667 180.281L214.667 164.692ZM217.997 165.981C216.867 165.738 215.745 165.315 214.667 164.692L205.667 180.281C208.386 181.851 211.267 182.944 214.205 183.577L217.997 165.981ZM208.364 173.2C205.982 180.191 202.236 186.561 197.435 191.99L210.919 203.914C217.268 196.734 222.238 188.292 225.402 179.004L208.364 173.2ZM209.716 192.37C207.444 189.424 204.575 186.872 201.181 184.912L192.181 200.5C193.506 201.265 194.6 202.244 195.462 203.362L209.716 192.37ZM201.181 184.912C187.193 176.836 169.307 181.628 161.232 195.616L176.82 204.616C179.925 199.238 186.802 197.395 192.181 200.5L201.181 184.912ZM161.232 195.616C156.675 203.509 156.222 212.653 159.189 220.543L176.037 214.207C174.885 211.144 175.07 207.647 176.82 204.616L161.232 195.616ZM165.337 209.898C162.296 210.416 159.164 210.687 155.961 210.687V228.687C160.181 228.687 164.325 228.33 168.362 227.642L165.337 209.898ZM155.961 210.687C153.278 210.687 150.644 210.497 148.071 210.13L145.532 227.95C148.943 228.436 152.425 228.687 155.961 228.687V210.687ZM132.787 200.5C137.662 203.315 139.64 209.245 137.641 214.33L154.393 220.915C159.603 207.663 154.492 192.247 141.787 184.912L132.787 200.5ZM117.845 203.944C121.111 199.09 127.639 197.528 132.787 200.5L141.787 184.912C128.388 177.176 111.422 181.246 102.911 193.896L117.845 203.944ZM115.368 192.961C110.151 187.336 106.096 180.633 103.57 173.234L86.5356 179.049C89.8915 188.879 95.2707 197.761 102.168 205.2L115.368 192.961ZM97.6543 183.632C105.608 182 112.888 177.087 117.278 169.483L101.69 160.483C99.9788 163.446 97.1626 165.358 94.035 166L97.6543 183.632ZM117.278 169.483C125.424 155.373 120.59 137.331 106.48 129.184L97.48 144.773C102.981 147.948 104.865 154.982 101.69 160.483L117.278 169.483ZM106.48 129.184C103.843 127.661 101.053 126.587 98.2059 125.946L94.2515 143.506C95.3468 143.753 96.4335 144.168 97.48 144.773L106.48 129.184ZM103.922 136.456C106.529 129.276 110.585 122.778 115.745 117.322L102.668 104.954C95.8447 112.168 90.4649 120.775 87.0021 130.314L103.922 136.456ZM103.458 116.497C105.786 119.77 108.815 122.616 112.468 124.772L121.616 109.27C120.2 108.435 119.032 107.338 118.127 106.065L103.458 116.497ZM112.468 124.772C126.571 133.096 144.513 128.073 152.533 113.872L136.86 105.02C133.7 110.616 126.878 112.376 121.616 109.27L112.468 124.772ZM152.533 113.872C156.748 106.409 157.41 97.8605 155.089 90.2791L137.878 95.5481C138.82 98.6269 138.539 102.047 136.86 105.02L152.533 113.872ZM148.504 100.497C150.939 100.17 153.428 100 155.961 100V82C152.623 82 149.333 82.2236 146.105 82.6577L148.504 100.497ZM155.961 100C158.99 100 161.956 100.242 164.841 100.707L167.704 82.9363C163.875 82.3196 159.952 82 155.961 82V100ZM148.315 140.87C156.06 136.398 165.964 139.052 170.435 146.797L186.024 137.797C176.581 121.443 155.669 115.839 139.315 125.281L148.315 140.87ZM142.388 162.99C137.916 155.245 140.57 145.342 148.315 140.87L139.315 125.281C122.96 134.724 117.357 155.636 126.799 171.99L142.388 162.99ZM164.508 168.918C156.763 173.389 146.859 170.736 142.388 162.99L126.799 171.99C136.241 188.345 157.154 193.948 173.508 184.506L164.508 168.918ZM170.435 146.797C174.907 154.542 172.253 164.446 164.508 168.918L173.508 184.506C189.862 175.064 195.466 154.151 186.024 137.797L170.435 146.797ZM155.089 90.2791C156.387 94.5195 153.854 99.7775 148.504 100.497L146.105 82.6577C139.499 83.546 136.209 90.0971 137.878 95.5481L155.089 90.2791ZM115.745 117.322C111.944 121.342 106.068 120.167 103.458 116.497L118.127 106.065C114.767 101.34 107.359 99.9937 102.668 104.954L115.745 117.322ZM103.57 173.234C105.271 178.214 101.899 182.761 97.6543 183.632L94.035 166C88.5793 167.12 84.4362 172.899 86.5356 179.049L103.57 173.234ZM148.071 210.13C153.723 210.936 156.066 216.661 154.393 220.915L137.641 214.33C135.483 219.82 138.565 226.957 145.532 227.95L148.071 210.13ZM159.189 220.543C157.611 216.346 159.892 210.826 165.337 209.898L168.362 227.642C175.08 226.497 178.07 219.613 176.037 214.207L159.189 220.543ZM214.205 183.577C209.999 182.671 206.679 178.147 208.364 173.2L225.402 179.004C227.483 172.895 223.403 167.147 217.997 165.981L214.205 183.577ZM102.911 193.896C105.462 190.103 111.495 188.785 115.368 192.961L102.168 205.2C106.942 210.349 114.554 208.837 117.845 203.944L102.911 193.896ZM208.018 136.503C206.24 131.592 209.469 127.002 213.662 126.015L217.786 143.537C223.174 142.269 227.138 136.44 224.943 130.375L208.018 136.503ZM98.2059 125.946C102.429 126.897 105.719 131.505 103.922 136.456L87.0021 130.314C84.7825 136.428 88.8213 142.283 94.2515 143.506L98.2059 125.946ZM197.435 191.99C201.092 187.854 206.981 188.823 209.716 192.37L195.462 203.362C198.986 207.931 206.406 209.017 210.919 203.914L197.435 191.99ZM208.661 117.805C205.855 121.047 200.298 121.805 196.759 117.947L210.025 105.78C205.656 101.018 198.659 101.856 195.05 106.027L208.661 117.805ZM175.732 95.5923C177.239 90.283 174.093 83.9655 167.704 82.9363L164.841 100.707C159.666 99.8736 157.245 94.8049 158.416 90.678L175.732 95.5923Z" fill="white" mask="url(#path-2-outside-1_1_5860)"/>
</svg>
