<svg width="32" height="22" viewBox="0 0 32 22" fill="none" xmlns="http://www.w3.org/2000/svg">
<path fill-rule="evenodd" clip-rule="evenodd" d="M17.1859 14.5402L16.7085 15.0458C16.4179 15.3534 15.9284 15.3534 15.6379 15.0458L15.1604 14.5402L2.10168 0.713503C2.10116 0.712956 2.10044 0.712646 2.09969 0.712646H1.44711C1.04046 0.712646 0.710815 1.04229 0.710815 1.44894V20.3326C0.710815 20.7392 1.04046 21.0689 1.4471 21.0689H30.8987C31.3053 21.0689 31.635 20.7392 31.635 20.3326V1.44894C31.635 1.04229 31.3053 0.712646 30.8987 0.712646H30.2463C30.2455 0.712646 30.2448 0.712956 30.2443 0.713503L17.1859 14.5402ZM26.5107 0.713503C27.1565 0.713503 27.4894 1.48578 27.046 1.95534L16.7085 12.9011C16.4179 13.2087 15.9284 13.2087 15.6379 12.9011L5.30008 1.95535C4.85661 1.48579 5.1895 0.713503 5.83537 0.713503H26.5107Z" fill="white"/>
</svg>
