<svg width="28" height="28" viewBox="0 0 28 28" fill="none" xmlns="http://www.w3.org/2000/svg">
<path fill-rule="evenodd" clip-rule="evenodd" d="M7.3155 25.9021L6.81865 25.6005L1.66884 26.9821L3.0434 21.8469L2.71988 21.3204C1.35784 19.1049 0.638473 16.5441 0.639528 13.9147C0.642506 6.2421 6.74645 0 14.2518 0C17.8861 0.00128871 21.3024 1.45058 23.8713 4.08097C26.4403 6.71135 27.8542 10.2076 27.8528 13.9259C27.8498 21.5991 21.7459 27.8418 14.2464 27.8418H14.2409C11.7993 27.8408 9.40459 27.1699 7.3155 25.9021ZM21.9313 17.5314C22.2166 17.6724 22.4092 17.7676 22.4915 17.908C22.5937 18.0825 22.5937 18.9201 22.253 19.8974C21.912 20.8746 20.2779 21.7665 19.4919 21.8865C18.7872 21.9943 17.8954 22.0392 16.9156 21.7208C16.3215 21.528 15.5596 21.2706 14.5837 20.8395C10.749 19.1461 8.1575 15.345 7.66772 14.6265C7.6334 14.5762 7.60941 14.541 7.59602 14.5227L7.59272 14.5182C7.37626 14.2228 5.92579 12.2436 5.92579 10.1951C5.92579 8.26816 6.85132 7.25813 7.27734 6.79321C7.30653 6.76136 7.33337 6.73206 7.35741 6.70521C7.73234 6.28638 8.17552 6.18168 8.44819 6.18168C8.72085 6.18168 8.99384 6.18425 9.23217 6.1965C9.26157 6.19801 9.29216 6.19782 9.32379 6.19763C9.56215 6.1962 9.85933 6.19442 10.1525 6.91462C10.2653 7.19178 10.4303 7.60268 10.6044 8.03606C10.9563 8.91244 11.3452 9.88073 11.4137 10.0208C11.5159 10.2303 11.5841 10.4745 11.4478 10.7538C11.4273 10.7957 11.4084 10.8352 11.3903 10.873C11.2879 11.0868 11.2125 11.2441 11.0387 11.4516C10.9704 11.5332 10.8997 11.6212 10.8291 11.7092C10.6884 11.8845 10.5477 12.0597 10.4251 12.1846C10.2204 12.3932 10.0072 12.6195 10.2458 13.0383C10.4844 13.4571 11.3053 14.827 12.5214 15.9363C13.8285 17.1288 14.9646 17.6328 15.5405 17.8882C15.6529 17.9381 15.744 17.9785 15.8108 18.0127C16.2197 18.2222 16.4583 18.1872 16.697 17.908C16.9356 17.6289 17.7195 16.6864 17.9921 16.2677C18.2648 15.849 18.5376 15.9188 18.9125 16.0583C19.2875 16.1981 21.2985 17.21 21.7076 17.4194C21.7874 17.4603 21.8621 17.4972 21.9313 17.5314Z" fill="white"/>
</svg>
