<svg width="195" height="27" viewBox="0 0 195 27" fill="none" xmlns="http://www.w3.org/2000/svg">
<path fill-rule="evenodd" clip-rule="evenodd" d="M1.91774 0.455144C0.606914 1.28197 0.279442 2.11688 0.135667 5.00004L0 7.72088H9.08282H18.1653V4.92728C18.1653 2.28044 18.1176 2.08019 17.2559 1.1181L16.3464 0.102523L9.53691 0.0235409C3.66862 -0.044247 2.61541 0.0154561 1.91774 0.455144ZM29.081 5.54421V6.78802H32.9795H36.878V14.7173V22.6467H38.1255H39.373V14.7173V6.78802H43.4274H47.4818V5.54421V4.3004H38.2814H29.081V5.54421ZM50.3842 5.05073L49.509 5.80137V13.4735V21.1457L50.3842 21.8963L51.2593 22.6467H59.5066H67.7539V21.4028V20.159H59.801H51.8481V17.5159V14.8728H59.801H67.7539V13.4735V12.0742H59.801H51.8481V9.43113V6.78802H59.801H67.7539V5.54421V4.3004H59.5066H51.2593L50.3842 5.05073ZM70.8661 5.1919L69.937 6.11823V14.3824V22.6467H71.1845H72.432V18.7597V14.8728H78.1843C83.8143 14.8728 83.9553 14.8887 84.8117 15.6228C85.6463 16.338 85.6918 16.5184 85.7941 19.5098L85.9011 22.6467H86.9637H88.0259V19.2983C88.0259 16.2211 87.9614 15.8554 87.23 14.7823L86.4344 13.6147L87.1365 12.6315C88.0624 11.3351 88.297 8.52345 87.5924 7.1649C87.3164 6.63317 86.576 5.80634 85.9463 5.32716L84.8017 4.45587L78.2985 4.36072L71.7955 4.26526L70.8661 5.1919ZM91.1382 5.1919L90.2091 6.11823V14.3824V22.6467H91.4566H92.7041V18.7597V14.8728H98.3032C101.742 14.8728 104.196 15.0059 104.662 15.218C105.79 15.7301 106.115 16.7703 106.115 19.8627V22.6467H107.362H108.61L108.596 19.9258C108.582 17.13 108.127 15.2652 107.213 14.2584C106.724 13.7195 106.743 13.6091 107.531 12.4216C109.1 10.058 108.553 7.10426 106.218 5.32716L105.074 4.45587L98.5705 4.36072L92.0676 4.26526L91.1382 5.1919ZM114.068 4.74102C112.779 5.31441 111.465 6.78087 111.099 8.05329C110.931 8.63789 110.793 12.1604 110.793 15.8812V22.6467H112.041H113.288V18.7597V14.8728H119.993H126.699V18.7597V22.6467H127.961H129.223L129.13 14.2235L129.038 5.80044L128.163 5.05042C127.301 4.31159 127.196 4.30071 121.145 4.31252C116.71 4.32123 114.743 4.44032 114.068 4.74102ZM131.977 5.10234L131.221 5.90429L131.129 14.2755L131.036 22.6467H132.293H133.549L133.633 14.8361L133.716 7.02559L139.656 14.6004C145.985 22.6715 146.571 23.2029 148.162 22.3142C149.607 21.5067 149.797 20.2333 149.705 11.9554L149.622 4.45587L148.302 4.36041L146.982 4.26526L146.898 11.9682L146.815 19.6708L141.83 13.3072C139.088 9.80707 136.299 6.34865 135.631 5.62195C134.182 4.04572 133.116 3.89398 131.977 5.10234ZM151.649 13.4735V22.6467H152.897H154.144V13.4735V4.3004H152.897H151.649V13.4735ZM157.467 4.65271C156.244 5.36137 156.015 6.75257 156.015 13.4735C156.015 20.2707 156.248 21.6277 157.528 22.3108C157.933 22.5266 161.06 22.6467 166.287 22.6467H174.416V21.4028V20.159H166.463H158.51V13.4735V6.78802H166.463H174.416V5.54421V4.3004L166.229 4.30972C160.989 4.31594 157.835 4.43939 157.467 4.65271ZM179.874 4.73946C178.669 5.27337 177.689 6.34554 177.082 7.79303C176.696 8.71438 176.599 10.3155 176.599 15.7957V22.6467H177.847H179.094V18.7597V14.8728H185.8H192.505V18.7597V22.6467H193.753H195V14.3824V6.11823L194.088 5.20931L193.177 4.3004L186.993 4.31252C182.539 4.32123 180.548 4.44064 179.874 4.73946ZM84.2834 7.1904C85.4707 7.78929 85.9647 9.05394 85.5272 10.3752C85.3304 10.9703 84.9087 11.596 84.5909 11.7658C84.2678 11.938 81.4562 12.0742 78.2224 12.0742H72.432V9.43113V6.78802L77.9679 6.79269C81.8034 6.7958 83.7432 6.918 84.2834 7.1904ZM104.555 7.1904C106.174 8.00665 106.483 10.1519 105.171 11.4601C104.601 12.0285 104.114 12.0742 98.6298 12.0742H92.7041V9.43113V6.78802L98.2399 6.79269C102.075 6.7958 104.015 6.918 104.555 7.1904ZM126.699 9.43113V12.0742H119.993H113.288V10.34C113.288 8.83783 113.41 8.48427 114.2 7.69694L115.111 6.78802H120.905H126.699V9.43113ZM192.505 9.43113V12.0742H185.8H179.094V10.4333C179.094 8.65716 179.651 7.54457 180.765 7.09649C181.133 6.94848 183.924 6.8185 186.969 6.80761L192.505 6.78802V9.43113ZM0.133172 17.5937C0.240146 25.2164 0.301586 25.5146 1.97013 26.4975C2.56675 26.8489 3.58316 27 5.34839 27H7.87335V18.7597V10.5195H3.95367H0.0343066L0.133172 17.5937ZM10.6803 18.7597V27H13.3624C15.9968 27 16.0633 26.9813 17.1049 25.9428L18.1653 24.8855V17.7025V10.5195H14.4228H10.6803V18.7597Z" fill="#B8BEFC"/>
<path fill-rule="evenodd" clip-rule="evenodd" d="M1.91774 0.455144C0.606914 1.28197 0.279442 2.11688 0.135667 5.00004L0 7.72088H9.08282H18.1653V4.92728C18.1653 2.28044 18.1176 2.08019 17.2559 1.1181L16.3464 0.102523L9.53691 0.0235409C3.66862 -0.044247 2.61541 0.0154561 1.91774 0.455144ZM29.081 5.54421V6.78802H32.9795H36.878V14.7173V22.6467H38.1255H39.373V14.7173V6.78802H43.4274H47.4818V5.54421V4.3004H38.2814H29.081V5.54421ZM50.3842 5.05073L49.509 5.80137V13.4735V21.1457L50.3842 21.8963L51.2593 22.6467H59.5066H67.7539V21.4028V20.159H59.801H51.8481V17.5159V14.8728H59.801H67.7539V13.4735V12.0742H59.801H51.8481V9.43113V6.78802H59.801H67.7539V5.54421V4.3004H59.5066H51.2593L50.3842 5.05073ZM70.8661 5.1919L69.937 6.11823V14.3824V22.6467H71.1845H72.432V18.7597V14.8728H78.1843C83.8143 14.8728 83.9553 14.8887 84.8117 15.6228C85.6463 16.338 85.6918 16.5184 85.7941 19.5098L85.9011 22.6467H86.9637H88.0259V19.2983C88.0259 16.2211 87.9614 15.8554 87.23 14.7823L86.4344 13.6147L87.1365 12.6315C88.0624 11.3351 88.297 8.52345 87.5924 7.1649C87.3164 6.63317 86.576 5.80634 85.9463 5.32716L84.8017 4.45587L78.2985 4.36072L71.7955 4.26526L70.8661 5.1919ZM91.1382 5.1919L90.2091 6.11823V14.3824V22.6467H91.4566H92.7041V18.7597V14.8728H98.3032C101.742 14.8728 104.196 15.0059 104.662 15.218C105.79 15.7301 106.115 16.7703 106.115 19.8627V22.6467H107.362H108.61L108.596 19.9258C108.582 17.13 108.127 15.2652 107.213 14.2584C106.724 13.7195 106.743 13.6091 107.531 12.4216C109.1 10.058 108.553 7.10426 106.218 5.32716L105.074 4.45587L98.5705 4.36072L92.0676 4.26526L91.1382 5.1919ZM114.068 4.74102C112.779 5.31441 111.465 6.78087 111.099 8.05329C110.931 8.63789 110.793 12.1604 110.793 15.8812V22.6467H112.041H113.288V18.7597V14.8728H119.993H126.699V18.7597V22.6467H127.961H129.223L129.13 14.2235L129.038 5.80044L128.163 5.05042C127.301 4.31159 127.196 4.30071 121.145 4.31252C116.71 4.32123 114.743 4.44032 114.068 4.74102ZM131.977 5.10234L131.221 5.90429L131.129 14.2755L131.036 22.6467H132.293H133.549L133.633 14.8361L133.716 7.02559L139.656 14.6004C145.985 22.6715 146.571 23.2029 148.162 22.3142C149.607 21.5067 149.797 20.2333 149.705 11.9554L149.622 4.45587L148.302 4.36041L146.982 4.26526L146.898 11.9682L146.815 19.6708L141.83 13.3072C139.088 9.80707 136.299 6.34865 135.631 5.62195C134.182 4.04572 133.116 3.89398 131.977 5.10234ZM151.649 13.4735V22.6467H152.897H154.144V13.4735V4.3004H152.897H151.649V13.4735ZM157.467 4.65271C156.244 5.36137 156.015 6.75257 156.015 13.4735C156.015 20.2707 156.248 21.6277 157.528 22.3108C157.933 22.5266 161.06 22.6467 166.287 22.6467H174.416V21.4028V20.159H166.463H158.51V13.4735V6.78802H166.463H174.416V5.54421V4.3004L166.229 4.30972C160.989 4.31594 157.835 4.43939 157.467 4.65271ZM179.874 4.73946C178.669 5.27337 177.689 6.34554 177.082 7.79303C176.696 8.71438 176.599 10.3155 176.599 15.7957V22.6467H177.847H179.094V18.7597V14.8728H185.8H192.505V18.7597V22.6467H193.753H195V14.3824V6.11823L194.088 5.20931L193.177 4.3004L186.993 4.31252C182.539 4.32123 180.548 4.44064 179.874 4.73946ZM84.2834 7.1904C85.4707 7.78929 85.9647 9.05394 85.5272 10.3752C85.3304 10.9703 84.9087 11.596 84.5909 11.7658C84.2678 11.938 81.4562 12.0742 78.2224 12.0742H72.432V9.43113V6.78802L77.9679 6.79269C81.8034 6.7958 83.7432 6.918 84.2834 7.1904ZM104.555 7.1904C106.174 8.00665 106.483 10.1519 105.171 11.4601C104.601 12.0285 104.114 12.0742 98.6298 12.0742H92.7041V9.43113V6.78802L98.2399 6.79269C102.075 6.7958 104.015 6.918 104.555 7.1904ZM126.699 9.43113V12.0742H119.993H113.288V10.34C113.288 8.83783 113.41 8.48427 114.2 7.69694L115.111 6.78802H120.905H126.699V9.43113ZM192.505 9.43113V12.0742H185.8H179.094V10.4333C179.094 8.65716 179.651 7.54457 180.765 7.09649C181.133 6.94848 183.924 6.8185 186.969 6.80761L192.505 6.78802V9.43113ZM0.133172 17.5937C0.240146 25.2164 0.301586 25.5146 1.97013 26.4975C2.56675 26.8489 3.58316 27 5.34839 27H7.87335V18.7597V10.5195H3.95367H0.0343066L0.133172 17.5937ZM10.6803 18.7597V27H13.3624C15.9968 27 16.0633 26.9813 17.1049 25.9428L18.1653 24.8855V17.7025V10.5195H14.4228H10.6803V18.7597Z" fill="url(#paint0_linear_1_3695)"/>
<path fill-rule="evenodd" clip-rule="evenodd" d="M1.91774 0.455144C0.606914 1.28197 0.279442 2.11688 0.135667 5.00004L0 7.72088H9.08282H18.1653V4.92728C18.1653 2.28044 18.1176 2.08019 17.2559 1.1181L16.3464 0.102523L9.53691 0.0235409C3.66862 -0.044247 2.61541 0.0154561 1.91774 0.455144ZM29.081 5.54421V6.78802H32.9795H36.878V14.7173V22.6467H38.1255H39.373V14.7173V6.78802H43.4274H47.4818V5.54421V4.3004H38.2814H29.081V5.54421ZM50.3842 5.05073L49.509 5.80137V13.4735V21.1457L50.3842 21.8963L51.2593 22.6467H59.5066H67.7539V21.4028V20.159H59.801H51.8481V17.5159V14.8728H59.801H67.7539V13.4735V12.0742H59.801H51.8481V9.43113V6.78802H59.801H67.7539V5.54421V4.3004H59.5066H51.2593L50.3842 5.05073ZM70.8661 5.1919L69.937 6.11823V14.3824V22.6467H71.1845H72.432V18.7597V14.8728H78.1843C83.8143 14.8728 83.9553 14.8887 84.8117 15.6228C85.6463 16.338 85.6918 16.5184 85.7941 19.5098L85.9011 22.6467H86.9637H88.0259V19.2983C88.0259 16.2211 87.9614 15.8554 87.23 14.7823L86.4344 13.6147L87.1365 12.6315C88.0624 11.3351 88.297 8.52345 87.5924 7.1649C87.3164 6.63317 86.576 5.80634 85.9463 5.32716L84.8017 4.45587L78.2985 4.36072L71.7955 4.26526L70.8661 5.1919ZM91.1382 5.1919L90.2091 6.11823V14.3824V22.6467H91.4566H92.7041V18.7597V14.8728H98.3032C101.742 14.8728 104.196 15.0059 104.662 15.218C105.79 15.7301 106.115 16.7703 106.115 19.8627V22.6467H107.362H108.61L108.596 19.9258C108.582 17.13 108.127 15.2652 107.213 14.2584C106.724 13.7195 106.743 13.6091 107.531 12.4216C109.1 10.058 108.553 7.10426 106.218 5.32716L105.074 4.45587L98.5705 4.36072L92.0676 4.26526L91.1382 5.1919ZM114.068 4.74102C112.779 5.31441 111.465 6.78087 111.099 8.05329C110.931 8.63789 110.793 12.1604 110.793 15.8812V22.6467H112.041H113.288V18.7597V14.8728H119.993H126.699V18.7597V22.6467H127.961H129.223L129.13 14.2235L129.038 5.80044L128.163 5.05042C127.301 4.31159 127.196 4.30071 121.145 4.31252C116.71 4.32123 114.743 4.44032 114.068 4.74102ZM131.977 5.10234L131.221 5.90429L131.129 14.2755L131.036 22.6467H132.293H133.549L133.633 14.8361L133.716 7.02559L139.656 14.6004C145.985 22.6715 146.571 23.2029 148.162 22.3142C149.607 21.5067 149.797 20.2333 149.705 11.9554L149.622 4.45587L148.302 4.36041L146.982 4.26526L146.898 11.9682L146.815 19.6708L141.83 13.3072C139.088 9.80707 136.299 6.34865 135.631 5.62195C134.182 4.04572 133.116 3.89398 131.977 5.10234ZM151.649 13.4735V22.6467H152.897H154.144V13.4735V4.3004H152.897H151.649V13.4735ZM157.467 4.65271C156.244 5.36137 156.015 6.75257 156.015 13.4735C156.015 20.2707 156.248 21.6277 157.528 22.3108C157.933 22.5266 161.06 22.6467 166.287 22.6467H174.416V21.4028V20.159H166.463H158.51V13.4735V6.78802H166.463H174.416V5.54421V4.3004L166.229 4.30972C160.989 4.31594 157.835 4.43939 157.467 4.65271ZM179.874 4.73946C178.669 5.27337 177.689 6.34554 177.082 7.79303C176.696 8.71438 176.599 10.3155 176.599 15.7957V22.6467H177.847H179.094V18.7597V14.8728H185.8H192.505V18.7597V22.6467H193.753H195V14.3824V6.11823L194.088 5.20931L193.177 4.3004L186.993 4.31252C182.539 4.32123 180.548 4.44064 179.874 4.73946ZM84.2834 7.1904C85.4707 7.78929 85.9647 9.05394 85.5272 10.3752C85.3304 10.9703 84.9087 11.596 84.5909 11.7658C84.2678 11.938 81.4562 12.0742 78.2224 12.0742H72.432V9.43113V6.78802L77.9679 6.79269C81.8034 6.7958 83.7432 6.918 84.2834 7.1904ZM104.555 7.1904C106.174 8.00665 106.483 10.1519 105.171 11.4601C104.601 12.0285 104.114 12.0742 98.6298 12.0742H92.7041V9.43113V6.78802L98.2399 6.79269C102.075 6.7958 104.015 6.918 104.555 7.1904ZM126.699 9.43113V12.0742H119.993H113.288V10.34C113.288 8.83783 113.41 8.48427 114.2 7.69694L115.111 6.78802H120.905H126.699V9.43113ZM192.505 9.43113V12.0742H185.8H179.094V10.4333C179.094 8.65716 179.651 7.54457 180.765 7.09649C181.133 6.94848 183.924 6.8185 186.969 6.80761L192.505 6.78802V9.43113ZM0.133172 17.5937C0.240146 25.2164 0.301586 25.5146 1.97013 26.4975C2.56675 26.8489 3.58316 27 5.34839 27H7.87335V18.7597V10.5195H3.95367H0.0343066L0.133172 17.5937ZM10.6803 18.7597V27H13.3624C15.9968 27 16.0633 26.9813 17.1049 25.9428L18.1653 24.8855V17.7025V10.5195H14.4228H10.6803V18.7597Z" fill="black" fill-opacity="0.2"/>
<defs>
<linearGradient id="paint0_linear_1_3695" x1="97.5" y1="-31" x2="97.5" y2="27" gradientUnits="userSpaceOnUse">
<stop stop-color="white"/>
<stop offset="1" stop-color="#7C7C7C"/>
</linearGradient>
</defs>
</svg>
