<svg width="29" height="29" viewBox="0 0 29 29" fill="none" xmlns="http://www.w3.org/2000/svg">
<g clip-path="url(#clip0_1_34)">
<path d="M21.3517 0.300113L17.6597 0.294189C13.5119 0.294189 10.8314 3.04431 10.8314 7.30084V10.5314H7.11934C6.79857 10.5314 6.53882 10.7914 6.53882 11.1122V15.7929C6.53882 16.1137 6.79887 16.3734 7.11934 16.3734H10.8314V28.1842C10.8314 28.505 11.0912 28.7648 11.412 28.7648H16.2552C16.576 28.7648 16.8357 28.5047 16.8357 28.1842V16.3734H21.176C21.4968 16.3734 21.7566 16.1137 21.7566 15.7929L21.7583 11.1122C21.7583 10.9582 21.697 10.8107 21.5883 10.7017C21.4796 10.5927 21.3315 10.5314 21.1775 10.5314H16.8357V7.79281C16.8357 6.47654 17.1494 5.80834 18.864 5.80834L21.3511 5.80745C21.6716 5.80745 21.9313 5.5474 21.9313 5.22692V0.880644C21.9313 0.560463 21.6719 0.300706 21.3517 0.300113Z" fill="white"/>
</g>
<defs>
<clipPath id="clip0_1_34">
<rect width="28.4706" height="28.4706" fill="white" transform="translate(0 0.293945)"/>
</clipPath>
</defs>
</svg>
