<svg width="36" height="40" viewBox="0 0 36 40" fill="none" xmlns="http://www.w3.org/2000/svg">
<g filter="url(#filter0_d_1_5664)">
<path fill-rule="evenodd" clip-rule="evenodd" d="M17.204 4.21436C17.446 4.07393 17.7205 4 18 4C18.2795 4 18.554 4.07393 18.796 4.21436L21.98 6.06236C22.3427 6.27605 22.6065 6.62522 22.714 7.0337C22.8214 7.44217 22.7637 7.87678 22.5535 8.24268C22.3433 8.60858 21.9977 8.87607 21.592 8.98677C21.1863 9.09747 20.7534 9.0424 20.388 8.83357L19.592 8.37117V10.4C19.592 10.8243 19.4243 11.2313 19.1257 11.5313C18.8272 11.8314 18.4222 12 18 12C17.5778 12 17.1728 11.8314 16.8743 11.5313C16.5757 11.2313 16.408 10.8243 16.408 10.4V8.37117L15.612 8.83357C15.2466 9.0424 14.8137 9.09747 14.408 8.98677C14.0023 8.87607 13.6567 8.60858 13.4465 8.24268C13.2363 7.87678 13.1786 7.44217 13.286 7.0337C13.3935 6.62522 13.6573 6.27605 14.02 6.06236L17.204 4.21436ZM10.1547 10.152C10.3658 10.5195 10.423 10.9562 10.3137 11.3661C10.2044 11.7759 9.93762 12.1254 9.57198 12.3376L8.77598 12.8L10.524 13.8144C10.7065 13.9187 10.8667 14.0582 10.9953 14.225C11.124 14.3918 11.2185 14.5824 11.2735 14.7861C11.3285 14.9897 11.3429 15.2023 11.3159 15.4115C11.2888 15.6208 11.2208 15.8226 11.1158 16.0053C11.0109 16.188 10.871 16.3481 10.7042 16.4763C10.5374 16.6045 10.347 16.6982 10.1441 16.7521C9.94108 16.8061 9.72949 16.8191 9.52147 16.7905C9.31346 16.762 9.11312 16.6923 8.932 16.5856L7.18399 15.5712V16.4944C7.18399 16.9187 7.01626 17.3257 6.7177 17.6258C6.41915 17.9258 6.01422 18.0944 5.59199 18.0944C5.16977 18.0944 4.76484 17.9258 4.46628 17.6258C4.16773 17.3257 4 16.9187 4 16.4944V12.8C4.00029 12.5194 4.07398 12.2438 4.21369 12.0009C4.35341 11.758 4.55422 11.5563 4.796 11.416L7.97999 9.56797C8.34563 9.35581 8.78016 9.29831 9.18799 9.40813C9.59582 9.51795 9.94353 9.7861 10.1547 10.1536V10.152ZM25.8453 10.152C26.0565 9.7845 26.4042 9.51635 26.812 9.40653C27.2198 9.29671 27.6544 9.35421 28.02 9.56637L31.204 11.4144C31.446 11.5548 31.647 11.7568 31.7867 12C31.9264 12.2432 32 12.5191 32 12.8V16.496C32 16.9203 31.8323 17.3273 31.5337 17.6274C31.2352 17.9274 30.8302 18.096 30.408 18.096C29.9858 18.096 29.5809 17.9274 29.2823 17.6274C28.9837 17.3273 28.816 16.9203 28.816 16.496V15.5712L27.068 16.5856C26.7025 16.7944 26.2697 16.8495 25.864 16.7388C25.4583 16.6281 25.1126 16.3606 24.9024 15.9947C24.6922 15.6288 24.6346 15.1942 24.742 14.7857C24.8495 14.3772 25.1133 14.0281 25.476 13.8144L27.224 12.8L26.428 12.3376C26.0624 12.1254 25.7956 11.7759 25.6863 11.3661C25.577 10.9562 25.6342 10.5195 25.8453 10.152ZM12.4853 16.8C12.6964 16.4325 13.0442 16.1644 13.452 16.0545C13.8598 15.9447 14.2943 16.0022 14.66 16.2144L18 18.152L21.34 16.2144C21.7055 16.0056 22.1383 15.9505 22.544 16.0612C22.9497 16.1719 23.2954 16.4394 23.5056 16.8053C23.7158 17.1712 23.7734 17.6058 23.666 18.0143C23.5585 18.4227 23.2947 18.7719 22.932 18.9856L19.592 20.9232V24.8C19.592 25.2244 19.4243 25.6313 19.1257 25.9314C18.8272 26.2314 18.4222 26.4 18 26.4C17.5778 26.4 17.1728 26.2314 16.8743 25.9314C16.5757 25.6313 16.408 25.2244 16.408 24.8V20.9232L13.068 18.9856C12.7024 18.7734 12.4356 18.4239 12.3263 18.0141C12.217 17.6042 12.2742 17.1675 12.4853 16.8ZM5.59199 21.904C6.01422 21.904 6.41915 22.0726 6.7177 22.3726C7.01626 22.6727 7.18399 23.0797 7.18399 23.504V24.4288L8.932 23.4144C9.29745 23.2056 9.73026 23.1505 10.136 23.2612C10.5417 23.3719 10.8873 23.6394 11.0975 24.0053C11.3078 24.3712 11.3654 24.8058 11.258 25.2143C11.1505 25.6228 10.8867 25.9719 10.524 26.1856L8.77598 27.2L9.57198 27.6624C9.7545 27.7667 9.91468 27.9063 10.0433 28.073C10.172 28.2398 10.2665 28.4305 10.3215 28.6341C10.3765 28.8377 10.3909 29.0503 10.3638 29.2596C10.3368 29.4688 10.2688 29.6706 10.1638 29.8533C10.0588 30.0361 9.91894 30.1961 9.75216 30.3243C9.58538 30.4525 9.39502 30.5463 9.19204 30.6002C8.98907 30.6541 8.77748 30.6672 8.56946 30.6386C8.36144 30.61 8.16111 30.5403 7.97999 30.4336L4.796 28.5856C4.55399 28.4452 4.35302 28.2432 4.2133 28C4.07357 27.7568 4.00001 27.4809 4 27.2V23.504C4 23.0797 4.16773 22.6727 4.46628 22.3726C4.76484 22.0726 5.16977 21.904 5.59199 21.904ZM30.408 21.904C30.8302 21.904 31.2352 22.0726 31.5337 22.3726C31.8323 22.6727 32 23.0797 32 23.504V27.2C32 27.4809 31.9264 27.7568 31.7867 28C31.647 28.2432 31.446 28.4452 31.204 28.5856L28.02 30.4336C27.8389 30.5403 27.6386 30.61 27.4305 30.6386C27.2225 30.6672 27.0109 30.6541 26.808 30.6002C26.605 30.5463 26.4146 30.4525 26.2478 30.3243C26.0811 30.1961 25.9411 30.0361 25.8362 29.8533C25.7312 29.6706 25.6632 29.4688 25.6362 29.2596C25.6091 29.0503 25.6235 28.8377 25.6785 28.6341C25.7335 28.4305 25.828 28.2398 25.9567 28.073C26.0853 27.9063 26.2455 27.7667 26.428 27.6624L27.224 27.2L25.476 26.1856C25.2935 26.0813 25.1333 25.9418 25.0047 25.775C24.876 25.6082 24.7815 25.4176 24.7265 25.2139C24.6715 25.0103 24.6571 24.7977 24.6841 24.5885C24.7112 24.3792 24.7792 24.1774 24.8842 23.9947C24.9891 23.8119 25.129 23.6519 25.2958 23.5237C25.4626 23.3955 25.653 23.3018 25.8559 23.2478C26.0589 23.1939 26.2705 23.1809 26.4785 23.2094C26.6865 23.238 26.8869 23.3077 27.068 23.4144L28.816 24.4288V23.5056C28.816 23.0813 28.9837 22.6743 29.2823 22.3742C29.5809 22.0742 29.9858 21.9056 30.408 21.9056V21.904ZM18 28C18.4222 28 18.8272 28.1686 19.1257 28.4686C19.4243 28.7687 19.592 29.1757 19.592 29.6V31.6288L20.388 31.1664C20.5691 31.0597 20.7694 30.9901 20.9775 30.9615C21.1855 30.9329 21.3971 30.9459 21.6 30.9999C21.803 31.0538 21.9934 31.1476 22.1602 31.2757C22.3269 31.4039 22.4669 31.564 22.5718 31.7467C22.6768 31.9294 22.7448 32.1312 22.7718 32.3405C22.7989 32.5497 22.7845 32.7623 22.7295 32.9659C22.6745 33.1696 22.58 33.3603 22.4513 33.527C22.3227 33.6938 22.1625 33.8333 21.98 33.9376L18.796 35.7856C18.554 35.9261 18.2795 36 18 36C17.7205 36 17.446 35.9261 17.204 35.7856L14.02 33.9376C13.8375 33.8333 13.6773 33.6938 13.5487 33.527C13.42 33.3603 13.3255 33.1696 13.2705 32.9659C13.2155 32.7623 13.2011 32.5497 13.2281 32.3405C13.2552 32.1312 13.3232 31.9294 13.4282 31.7467C13.5331 31.564 13.6731 31.4039 13.8398 31.2757C14.0066 31.1476 14.197 31.0538 14.3999 30.9999C14.6029 30.9459 14.8145 30.9329 15.0225 30.9615C15.2305 30.9901 15.4309 31.0597 15.612 31.1664L16.408 31.6288V29.6C16.408 29.1757 16.5757 28.7687 16.8743 28.4686C17.1728 28.1686 17.5778 28 18 28Z" fill="white"/>
</g>
<defs>
<filter id="filter0_d_1_5664" x="0" y="0" width="36" height="40" filterUnits="userSpaceOnUse" color-interpolation-filters="sRGB">
<feFlood flood-opacity="0" result="BackgroundImageFix"/>
<feColorMatrix in="SourceAlpha" type="matrix" values="0 0 0 0 0 0 0 0 0 0 0 0 0 0 0 0 0 0 127 0" result="hardAlpha"/>
<feOffset/>
<feGaussianBlur stdDeviation="2"/>
<feComposite in2="hardAlpha" operator="out"/>
<feColorMatrix type="matrix" values="0 0 0 0 0.5875 0 0 0 0 0.87625 0 0 0 0 1 0 0 0 1 0"/>
<feBlend mode="normal" in2="BackgroundImageFix" result="effect1_dropShadow_1_5664"/>
<feBlend mode="normal" in="SourceGraphic" in2="effect1_dropShadow_1_5664" result="shape"/>
</filter>
</defs>
</svg>
