<svg width="28" height="29" viewBox="0 0 28 29" fill="none" xmlns="http://www.w3.org/2000/svg">
<g clip-path="url(#clip0_1_37)">
<path d="M20.6435 0.882812H8.1799C4.1235 0.882812 0.823486 4.18283 0.823486 8.23922V20.703C0.823486 24.7592 4.1235 28.0592 8.1799 28.0592H20.6437C24.6999 28.0592 27.9999 24.7592 27.9999 20.703V8.23922C27.9999 4.18283 24.6999 0.882813 20.6435 0.882813V0.882812ZM14.4117 21.9019C10.3143 21.9019 6.98085 18.5685 6.98085 14.471C6.98085 10.3736 10.3143 7.04018 14.4117 7.04018C18.5091 7.04018 21.8425 10.3736 21.8425 14.471C21.8425 18.5685 18.5091 21.9019 14.4117 21.9019ZM22.0202 8.79261C20.8094 8.79261 19.8245 7.80775 19.8245 6.59689C19.8245 5.38602 20.8094 4.40095 22.0202 4.40095C23.2311 4.40095 24.2162 5.38602 24.2162 6.59689C24.2162 7.80775 23.2311 8.79261 22.0202 8.79261Z" fill="white"/>
<path d="M14.4107 8.63354C11.192 8.63354 8.57306 11.2522 8.57306 14.4712C8.57306 17.6899 11.192 20.3088 14.4107 20.3088C17.6297 20.3088 20.2484 17.6899 20.2484 14.4712C20.2484 11.2522 17.6297 8.63354 14.4107 8.63354Z" fill="white"/>
</g>
<defs>
<clipPath id="clip0_1_37">
<rect width="27.1765" height="27.1765" fill="white" transform="translate(0.823486 0.882812)"/>
</clipPath>
</defs>
</svg>
